<svg width="19" height="20" viewBox="0 0 19 20" fill="none" xmlns="http://www.w3.org/2000/svg">
<path fill-rule="evenodd" clip-rule="evenodd" d="M10.0934 14.1698H12.2705C14.8197 14.1698 15.6351 13.3543 15.6351 10.8052V7.48021C15.6351 4.93105 14.8197 4.11563 12.2705 4.11563H10.608C10.3547 4.11563 10.3547 4.11562 10.1963 3.90979L9.3651 2.80144C8.95344 2.25519 8.613 1.89893 7.56008 1.89893H6.72884C4.17967 1.89893 3.36426 2.71434 3.36426 5.26351V10.8052C3.36426 13.3543 4.17967 14.1698 6.72884 14.1698H8.90592V15.439C8.18036 15.6439 7.60923 16.215 7.40438 16.9406H4.74967C4.42509 16.9406 4.15592 17.2098 4.15592 17.5343C4.15592 17.8589 4.42509 18.1281 4.74967 18.1281H7.40438C7.66251 19.0424 8.50222 19.7114 9.49967 19.7114C10.4971 19.7114 11.3368 19.0424 11.595 18.1281H14.2497C14.5743 18.1281 14.8434 17.8589 14.8434 17.5343C14.8434 17.2098 14.5743 16.9406 14.2497 16.9406H11.595C11.3901 16.215 10.819 15.6439 10.0934 15.439V14.1698ZM12.2705 12.9823C14.1626 12.9823 14.4476 12.6973 14.4476 10.8052V7.48021C14.4476 5.58813 14.1626 5.30313 12.2705 5.30313H10.608C9.82428 5.30313 9.53926 5.01014 9.25426 4.63014L8.4151 3.51396L8.4125 3.51047C8.13776 3.14153 8.09673 3.08643 7.56008 3.08643H6.72884C4.83676 3.08643 4.55176 3.37143 4.55176 5.26351V10.8052C4.55176 12.6973 4.83676 12.9823 6.72884 12.9823H12.2705ZM8.51009 17.5343C8.51009 16.9881 8.95342 16.5448 9.49967 16.5448C10.0459 16.5448 10.4893 16.9881 10.4893 17.5343C10.4893 18.0806 10.0459 18.5239 9.49967 18.5239C8.95342 18.5239 8.51009 18.0806 8.51009 17.5343Z" fill="black" fill-opacity="0.66"/>
</svg>
