<svg width="19" height="20" viewBox="0 0 19 20" fill="none" xmlns="http://www.w3.org/2000/svg">
<path fill-rule="evenodd" clip-rule="evenodd" d="M11.4949 6.5507C11.6058 6.63779 11.7403 6.68529 11.8749 6.68529C12.0412 6.68529 12.2153 6.61403 12.3341 6.47153C12.5399 6.2182 12.5082 5.84612 12.2549 5.63237L11.1406 4.70618H13.4583C14.0045 4.70618 14.4478 5.14951 14.4478 5.69576V12.6823C13.0933 12.9576 12.0728 14.1562 12.0728 15.5916C12.0728 17.2303 13.4028 18.5603 15.0416 18.5603C16.6803 18.5603 18.0103 17.2303 18.0103 15.5916C18.0103 14.1562 16.9899 12.9576 15.6353 12.6823V5.69576C15.6353 4.49243 14.6616 3.51868 13.4583 3.51868H11.1404L12.2549 2.59237C12.5082 2.37862 12.5478 2.00654 12.3341 1.75321C12.1203 1.49987 11.7483 1.46029 11.4949 1.67404L9.11993 3.6532C8.98535 3.77195 8.90617 3.93029 8.90617 4.11237C8.90617 4.29445 8.98535 4.46071 9.11993 4.57154L11.4949 6.5507ZM15.0416 13.8103C14.0599 13.8103 13.2603 14.6099 13.2603 15.5916C13.2603 16.5733 14.0599 17.3728 15.0416 17.3728C16.0233 17.3728 16.8228 16.5733 16.8228 15.5916C16.8228 14.6099 16.0233 13.8103 15.0416 13.8103Z" fill="black" fill-opacity="0.56"/>
<path fill-rule="evenodd" clip-rule="evenodd" d="M3.3645 12.6823V7.77318C1.99832 7.42186 0.989502 6.18237 0.989502 4.70618C0.989502 2.95659 2.40659 1.53951 4.15617 1.53951C5.90575 1.53951 7.32283 2.95659 7.32283 4.70618C7.32283 6.3217 6.1146 7.65373 4.552 7.84837V12.6823C5.90655 12.9576 6.927 14.1562 6.927 15.5916C6.927 17.2303 5.597 18.5603 3.95825 18.5603C2.3195 18.5603 0.989502 17.2303 0.989502 15.5916C0.989502 14.1562 2.00995 12.9576 3.3645 12.6823ZM2.177 15.5916C2.177 14.6099 2.97659 13.8103 3.95825 13.8103C4.93992 13.8103 5.7395 14.6099 5.7395 15.5916C5.7395 16.5733 4.93992 17.3728 3.95825 17.3728C2.97659 17.3728 2.177 16.5733 2.177 15.5916ZM2.177 4.70618C2.177 3.61368 3.06367 2.72701 4.15617 2.72701C5.24867 2.72701 6.13533 3.61368 6.13533 4.70618C6.13533 5.79868 5.24867 6.68534 4.15617 6.68534C3.06367 6.68534 2.177 5.79868 2.177 4.70618Z" fill="black" fill-opacity="0.56"/>
</svg>
