<svg width="24" height="25" viewBox="0 0 24 25" fill="none" xmlns="http://www.w3.org/2000/svg">
<path fill-rule="evenodd" clip-rule="evenodd" d="M2.96679 18.0774L2.36955 17.0739C2.00905 16.47 1.90451 15.7576 2.0767 15.0629C2.25761 14.3732 2.68373 13.7982 3.28759 13.4377C3.79016 13.135 4.08516 12.7731 4.07893 12.437C4.0727 12.1009 3.78101 11.7421 3.26658 11.4532C1.99357 10.7383 1.53867 9.11806 2.25355 7.84506L3.11533 6.31048C3.83021 5.03747 5.45048 4.58257 6.72348 5.29745C7.23791 5.58634 7.69608 5.64866 7.9863 5.47905C8.27653 5.30943 8.44073 4.87407 8.42887 4.2825C8.42239 3.57925 8.69646 2.9074 9.18636 2.40263C9.68117 1.88914 10.3439 1.60759 11.0559 1.606L13.0491 1.58988C14.3624 1.559 15.4706 2.62862 15.5004 3.96429L15.5071 4.19743C15.5221 5.37568 16.2283 5.77229 17.2422 5.17183L17.4312 5.06002C18.5921 4.38155 20.0822 4.77108 20.7432 5.92218L21.7047 7.53778L20.4024 8.2703L19.4364 6.65631C19.1888 6.21907 18.6183 6.07076 18.1762 6.32709L17.9872 6.4389C17.0055 7.023 16.0076 7.10487 15.2316 6.66909C14.4556 6.2333 14.0061 5.33862 13.9938 4.19632L13.9958 3.96807C13.9835 3.47945 13.5687 3.07446 13.0713 3.0819L11.0733 3.10673C10.7731 3.11021 10.4763 3.23026 10.2597 3.45266C10.043 3.67507 9.92613 3.96495 9.92961 4.2651C9.94675 5.39868 9.51324 6.31359 8.75257 6.76953C7.99189 7.22546 6.983 7.16353 5.98901 6.60533C5.43098 6.29196 4.73658 6.48692 4.42321 7.04495L3.56143 8.57953C3.25295 9.12884 3.44302 9.83196 4.00105 10.1453C4.99504 10.7035 5.57304 11.5328 5.57966 12.4196C5.58628 13.3064 5.0307 14.1528 4.05385 14.7281C3.79575 14.8814 3.60909 15.1321 3.53195 15.4329C3.45481 15.7336 3.50296 16.0359 3.65131 16.3027L4.27358 17.3424L2.96679 18.0774ZM15.5571 10.9957C15.2547 10.2079 14.6863 9.51707 13.8937 9.07194C12.0888 8.05837 9.80135 8.70059 8.78779 10.5055C8.0289 11.8568 8.19824 13.4787 9.08883 14.6339L10.4202 13.8851C9.76429 13.188 9.60303 12.1172 10.0957 11.2399C10.7028 10.1588 12.078 9.77266 13.1592 10.3798C13.7033 10.6854 14.0714 11.1855 14.2254 11.7447L15.5571 10.9957Z" fill="black" fill-opacity="0.66"/>
<path fill-rule="evenodd" clip-rule="evenodd" d="M6.0146 19.2766C5.57012 20.0274 5.50537 20.8076 5.83473 21.4186C6.16409 22.0296 6.85136 22.4043 7.72239 22.4288L8.93234 22.4871C9.37664 22.5076 11.6804 21.4651 12.0698 21.2552L19.3137 17.3505C19.3426 17.3406 19.3711 17.3283 19.3989 17.3133C19.4266 17.2984 19.4526 17.2814 19.4768 17.2626L20.7717 16.5646C22.1415 15.8262 22.6553 14.1108 21.9169 12.7411C21.1786 11.3713 19.4632 10.8575 18.0934 11.5959L7.7149 17.1902C7.32547 17.4002 6.85812 17.8514 6.63098 18.2338L6.0146 19.2766ZM19.3595 16.0346L20.2325 15.5641C21.0449 15.1262 21.3513 14.1031 20.9134 13.2907C20.4755 12.4782 19.4524 12.1718 18.64 12.6098L17.767 13.0803L19.3595 16.0346ZM16.7599 13.6232L8.26814 18.2005C8.05999 18.3127 7.74498 18.6125 7.6216 18.8176L7.00522 19.8604C6.76827 20.2568 6.7147 20.6236 6.84861 20.8721C6.98253 21.1205 7.32512 21.2738 7.77975 21.2973L8.9897 21.3557C9.2289 21.3654 9.65249 21.2671 9.86063 21.1549L18.3524 16.5775L16.7599 13.6232Z" fill="black" fill-opacity="0.66"/>
</svg>
