<svg width="19" height="20" viewBox="0 0 19 20" fill="none" xmlns="http://www.w3.org/2000/svg">
<path d="M8.05908 12.0669H10.9407C11.2653 12.0669 11.5345 11.7977 11.5345 11.4731C11.5345 11.1486 11.2653 10.8794 10.9407 10.8794H8.05908C7.7345 10.8794 7.46533 11.1486 7.46533 11.4731C7.46533 11.7977 7.7345 12.0669 8.05908 12.0669Z" fill="black" fill-opacity="0.56"/>
<path fill-rule="evenodd" clip-rule="evenodd" d="M0.989502 5.93148C0.989502 7.4864 1.68308 8.47291 2.96867 8.7894V15.4315C2.96867 16.9752 3.32492 18.4002 5.93742 18.4002H13.0624C15.6749 18.4002 16.0312 16.9752 16.0312 15.4315V8.7894C17.3168 8.47291 18.0103 7.4864 18.0103 5.93148V4.34814C18.0103 2.43231 16.9574 1.37939 15.0416 1.37939H3.95825C2.04242 1.37939 0.989502 2.43231 0.989502 4.34814V5.93148ZM4.15617 8.90023H14.8437V15.4315C14.8437 16.809 14.6062 17.2127 13.0624 17.2127H5.93742C4.39367 17.2127 4.15617 16.809 4.15617 15.4315V8.90023ZM3.95825 2.56689C2.70742 2.56689 2.177 3.09731 2.177 4.34814V5.93148C2.177 7.18231 2.70742 7.71273 3.95825 7.71273H15.0416C16.2924 7.71273 16.8228 7.18231 16.8228 5.93148V4.34814C16.8228 3.09731 16.2924 2.56689 15.0416 2.56689H3.95825Z" fill="black" fill-opacity="0.56"/>
</svg>
