<svg width="19" height="20" viewBox="0 0 19 20" fill="none" xmlns="http://www.w3.org/2000/svg">
<path d="M5.85833 5.13334L12.5796 2.89292C15.5958 1.8875 17.2346 3.53417 16.2371 6.55042L13.9967 13.2717C12.4925 17.7921 10.0225 17.7921 8.51833 13.2717L7.85333 11.2767L5.85833 10.6117C1.33791 9.1075 1.33791 6.64542 5.85833 5.13334Z" stroke="black" stroke-opacity="0.56" stroke-width="1.25" stroke-linecap="round" stroke-linejoin="round"/>
<path d="M3.5686 15.3712L5.89859 13.0347" stroke="black" stroke-opacity="0.56" stroke-width="1.25" stroke-linecap="round" stroke-linejoin="round"/>
<path d="M11.3105 9.97833C12.5259 9.97833 13.5113 8.99298 13.5113 7.77749C13.5113 6.56201 12.5259 5.57666 11.3105 5.57666C10.095 5.57666 9.10962 6.56201 9.10962 7.77749C9.10962 8.99298 10.095 9.97833 11.3105 9.97833Z" stroke="black" stroke-opacity="0.56" stroke-width="1.25" stroke-linecap="round" stroke-linejoin="round"/>
<path d="M2.46802 13.0349L3.63301 11.8667" stroke="black" stroke-opacity="0.56" stroke-width="1.25" stroke-linecap="round" stroke-linejoin="round"/>
<path d="M5.89868 16.5393L7.06367 15.3711" stroke="black" stroke-opacity="0.56" stroke-width="1.25" stroke-linecap="round" stroke-linejoin="round"/>
</svg>
