<svg width="19" height="20" viewBox="0 0 19 20" fill="none" xmlns="http://www.w3.org/2000/svg">
<path fill-rule="evenodd" clip-rule="evenodd" d="M6.46779 14.759C6.87154 15.1706 7.42571 15.4002 8.00363 15.4002C8.58946 15.4002 9.13571 15.1785 9.54738 14.751L11.1387 13.1597C11.164 13.1411 11.1879 13.12 11.2099 13.0964C11.2293 13.0771 11.247 13.0567 11.263 13.0354L11.9185 12.38L15.4216 15.8831C15.5403 16.0019 15.6907 16.0573 15.8412 16.0573C15.9916 16.0573 16.142 16.0019 16.2607 15.8831C16.4903 15.6535 16.4903 15.2735 16.2607 15.0439L12.7576 11.5408L15.1445 9.15397C15.5561 8.75022 15.7857 8.19606 15.7857 7.61814C15.7857 7.04022 15.5561 6.49397 15.1445 6.0823L11.7878 2.72564C10.9407 1.87856 9.55529 1.87856 8.70821 2.72564L3.11112 8.32271C2.26404 9.16979 2.26404 10.5552 3.11112 11.4023L6.46779 14.759ZM6.03638 7.08372L9.54738 3.57271C9.73738 3.37479 9.99071 3.2798 10.244 3.2798C10.4974 3.2798 10.7507 3.3748 10.9486 3.58063L14.3053 6.93729C14.4953 7.11938 14.5982 7.37271 14.5982 7.63396C14.5982 7.89521 14.4953 8.14063 14.3053 8.33063L11.5639 11.072C11.5426 11.0881 11.5222 11.1058 11.5028 11.1252C11.4835 11.1445 11.4658 11.1649 11.4497 11.1862L10.7943 11.8416L6.03638 7.08372ZM5.19721 7.92288L9.95514 12.6808L8.70821 13.9277C8.32821 14.2998 7.67904 14.2998 7.30696 13.9277L3.9503 10.571C3.56238 10.1831 3.56238 9.55771 3.9503 9.1698L5.19721 7.92288Z" fill="black" fill-opacity="0.56"/>
<path d="M6.33325 18.0285H1.58325C1.25867 18.0285 0.989502 17.7594 0.989502 17.4348C0.989502 17.1102 1.25867 16.841 1.58325 16.841H6.33325C6.65784 16.841 6.927 17.1102 6.927 17.4348C6.927 17.7594 6.65784 18.0285 6.33325 18.0285Z" fill="black" fill-opacity="0.56"/>
</svg>
