<svg width="19" height="20" viewBox="0 0 19 20" fill="none" xmlns="http://www.w3.org/2000/svg">
<path d="M9.08029 12.6167C9.18943 12.7259 9.32533 12.7815 9.46339 12.7898C9.47548 12.7906 9.48766 12.791 9.49992 12.791C9.52572 12.791 9.55117 12.7893 9.57616 12.7861C9.64086 12.7779 9.70454 12.759 9.76466 12.7289C9.83164 12.6956 9.89158 12.65 9.94136 12.5948L12.2945 10.2417C12.524 10.0122 12.524 9.63217 12.2945 9.40258C12.0649 9.173 11.6849 9.173 11.4553 9.40258L10.0937 10.7642V5.86388C10.0937 5.5393 9.8245 5.27013 9.49992 5.27013C9.17533 5.27013 8.90617 5.5393 8.90617 5.86388V10.7643L7.54445 9.40258C7.31487 9.173 6.93487 9.173 6.70529 9.40258C6.47571 9.63217 6.47571 10.0122 6.70529 10.2417L9.08029 12.6167Z" fill="black" fill-opacity="0.56"/>
<path d="M4.55988 14.3428C6.15113 14.8732 7.82946 15.1423 9.49987 15.1423C11.1703 15.1423 12.8486 14.8811 14.4478 14.3428C14.7565 14.2398 14.9228 13.8994 14.8199 13.5907C14.717 13.2819 14.3765 13.1157 14.0678 13.2186C11.1228 14.2003 7.88487 14.2003 4.93987 13.2186C4.62321 13.1078 4.29071 13.2819 4.18779 13.5907C4.08487 13.8994 4.25113 14.2398 4.55988 14.3428Z" fill="black" fill-opacity="0.56"/>
<path fill-rule="evenodd" clip-rule="evenodd" d="M11.8749 18.7205C16.1737 18.7205 18.0103 16.8839 18.0103 12.5851V7.83512C18.0103 3.53637 16.1737 1.69971 11.8749 1.69971H7.12492C2.82617 1.69971 0.989502 3.53637 0.989502 7.83512V12.5851C0.989502 16.8839 2.82617 18.7205 7.12492 18.7205H11.8749ZM2.177 7.83512C2.177 4.18554 3.47534 2.88721 7.12492 2.88721H11.8749C15.5245 2.88721 16.8228 4.18554 16.8228 7.83512V12.5851C16.8228 16.2347 15.5245 17.533 11.8749 17.533H7.12492C3.47534 17.533 2.177 16.2347 2.177 12.5851V7.83512Z" fill="black" fill-opacity="0.56"/>
</svg>
