<svg width="19" height="18" viewBox="0 0 19 18" fill="none" xmlns="http://www.w3.org/2000/svg">
<path d="M5.63624 8.18744C5.48583 8.18744 5.33541 8.13203 5.21666 8.01328L4.62291 7.41953C4.39333 7.18994 4.39333 6.80994 4.62291 6.58036C4.85249 6.35078 5.23249 6.35078 5.46208 6.58036L5.63624 6.75453L6.99791 5.39286C7.22749 5.16328 7.60749 5.16328 7.83708 5.39286C8.06666 5.62244 8.06666 6.00244 7.83708 6.23203L6.05583 8.01328C5.94499 8.12411 5.79458 8.18744 5.63624 8.18744Z" fill="black" fill-opacity="0.56"/>
<path d="M13.9492 7.58581H9.79293C9.46834 7.58581 9.19918 7.31665 9.19918 6.99206C9.19918 6.66748 9.46834 6.39831 9.79293 6.39831H13.9492C14.2738 6.39831 14.5429 6.66748 14.5429 6.99206C14.5429 7.31665 14.2817 7.58581 13.9492 7.58581Z" fill="black" fill-opacity="0.56"/>
<path d="M9.79293 13.1275H13.9492C14.2817 13.1275 14.5429 12.8583 14.5429 12.5337C14.5429 12.2091 14.2738 11.94 13.9492 11.94H9.79293C9.46834 11.94 9.19918 12.2091 9.19918 12.5337C9.19918 12.8583 9.46834 13.1275 9.79293 13.1275Z" fill="black" fill-opacity="0.56"/>
<path d="M5.63624 13.7291C5.48583 13.7291 5.33541 13.6737 5.21666 13.5549L4.62291 12.9612C4.39333 12.7316 4.39333 12.3516 4.62291 12.122C4.85249 11.8924 5.23249 11.8924 5.46208 12.122L5.63624 12.2962L6.99791 10.9345C7.22749 10.7049 7.60749 10.7049 7.83708 10.9345C8.06666 11.1641 8.06666 11.5441 7.83708 11.7737L6.05583 13.5549C5.94499 13.6658 5.79458 13.7291 5.63624 13.7291Z" fill="black" fill-opacity="0.56"/>
<path fill-rule="evenodd" clip-rule="evenodd" d="M7.12492 17.9803H11.8749C16.1737 17.9803 18.0103 16.1436 18.0103 11.8449V7.09489C18.0103 2.79614 16.1737 0.959473 11.8749 0.959473H7.12492C2.82617 0.959473 0.989502 2.79614 0.989502 7.09489V11.8449C0.989502 16.1436 2.82617 17.9803 7.12492 17.9803ZM2.177 7.09489C2.177 3.44531 3.47534 2.14697 7.12492 2.14697H11.8749C15.5245 2.14697 16.8228 3.44531 16.8228 7.09489V11.8449C16.8228 15.4945 15.5245 16.7928 11.8749 16.7928H7.12492C3.47534 16.7928 2.177 15.4945 2.177 11.8449V7.09489Z" fill="black" fill-opacity="0.56"/>
</svg>
