<svg width="19" height="20" viewBox="0 0 19 20" fill="none" xmlns="http://www.w3.org/2000/svg">
<path d="M8.70825 14.2817C8.55783 14.2817 8.40742 14.2263 8.28867 14.1075C8.05909 13.8779 8.05909 13.4979 8.28867 13.2684L8.85867 12.6984H5.54158C5.217 12.6984 4.94783 12.4292 4.94783 12.1046C4.94783 11.78 5.217 11.5109 5.54158 11.5109H8.85867L8.28867 10.9409C8.16992 10.8221 8.1145 10.6717 8.1145 10.5213C8.1145 10.3709 8.16992 10.2204 8.28867 10.1017C8.51825 9.87211 8.89825 9.87211 9.12783 10.1017L10.7112 11.685C10.8141 11.7879 10.8695 11.9225 10.8774 12.0492V12.1759C10.8616 12.2867 10.8141 12.3896 10.7349 12.4846L9.11992 14.0996C9.00909 14.2263 8.85867 14.2817 8.70825 14.2817Z" fill="black" fill-opacity="0.56"/>
<path fill-rule="evenodd" clip-rule="evenodd" d="M11.8749 18.2401H7.12492C2.82617 18.2401 0.989502 16.4034 0.989502 12.1047V7.35465C0.989502 3.0559 2.82617 1.21924 7.12492 1.21924H11.0833C11.221 1.21924 11.3488 1.26772 11.4502 1.34834C11.4684 1.3623 11.486 1.37733 11.5028 1.3934L17.8362 7.72673C17.8812 7.77178 17.9181 7.8238 17.9461 7.88012C17.9871 7.96047 18.0103 8.051 18.0103 8.14632V12.1047C18.0103 16.4034 16.1737 18.2401 11.8749 18.2401ZM16.8228 8.74006V12.1047C16.8228 15.7542 15.5245 17.0526 11.8749 17.0526H7.12492C3.47534 17.0526 2.177 15.7542 2.177 12.1047V7.35465C2.177 3.70507 3.47534 2.40674 7.12492 2.40674H10.4895V4.97965C10.4895 7.68715 11.5424 8.74006 14.2499 8.74006H16.8228ZM11.677 4.97965V3.2459L15.9837 7.55256H14.2499C12.2074 7.55256 11.677 7.02215 11.677 4.97965Z" fill="black" fill-opacity="0.56"/>
</svg>
