<svg width="25" height="25" viewBox="0 0 25 25" fill="none" xmlns="http://www.w3.org/2000/svg">
<g id="document-expired">
<g id="Union">
<path fill-rule="evenodd" clip-rule="evenodd" d="M5.69348 16.7877C5.91645 16.6066 6.27758 16.3104 6.62658 16.0236L7.08809 15.6439C7.38852 15.3965 7.61009 15.2137 7.61009 15.2137L5.69348 13.6398C5.14824 13.197 4.93758 12.5421 5.16476 12.0137C5.38369 11.504 5.95371 11.2137 6.7344 11.2137H9.41104C10.1917 11.2137 10.7618 11.5077 10.9807 12.0137C11.2079 12.5421 10.9972 13.197 10.452 13.6398L8.53535 15.2137L10.4561 16.7877C10.9972 17.2305 11.212 17.8854 10.9848 18.4137C10.7618 18.9198 10.1917 19.2137 9.41104 19.2137H6.7344C5.95371 19.2137 5.38369 18.9198 5.16476 18.4137C4.93758 17.8854 5.14824 17.2305 5.69348 16.7877ZM7.65043 16.8L8.07368 16.4515L9.66448 17.7551C9.73396 17.8119 9.77508 17.8667 9.79821 17.9078C9.72898 17.9338 9.60475 17.9637 9.41104 17.9637H6.7344C6.54156 17.9637 6.41792 17.9341 6.34918 17.9084C6.3715 17.8685 6.41187 17.8146 6.48149 17.758C6.75773 17.5337 7.23997 17.1377 7.65043 16.8ZM6.48679 12.6738L8.07272 13.9762L9.66395 12.6695C9.73357 12.6129 9.77395 12.559 9.79626 12.5191C9.72752 12.4934 9.60388 12.4637 9.41104 12.4637H6.7344C6.541 12.4637 6.41734 12.4929 6.34869 12.5182C6.37091 12.5582 6.41136 12.6125 6.48149 12.6695L6.48679 12.6738Z" fill="black" fill-opacity="0.66"/>
<path fill-rule="evenodd" clip-rule="evenodd" d="M15.0745 22.9637H9.07446C3.64446 22.9637 1.32446 20.6437 1.32446 15.2137V9.21375C1.32446 3.78375 3.64446 1.46375 9.07446 1.46375H14.0745C14.2485 1.46375 14.4099 1.52498 14.538 1.62682C14.561 1.64445 14.5832 1.66344 14.6045 1.68373L22.6045 9.68373C22.6614 9.74064 22.708 9.80635 22.7433 9.87749C22.7951 9.97898 22.8245 10.0933 22.8245 10.2137V15.2137C22.8245 20.6437 20.5045 22.9637 15.0745 22.9637ZM9.07446 2.96375H13.3245V6.21373C13.3245 9.63373 14.6545 10.9637 18.0745 10.9637H21.3245V15.2137C21.3245 19.8237 19.6845 21.4637 15.0745 21.4637H9.07446C4.46446 21.4637 2.82446 19.8237 2.82446 15.2137V9.21375C2.82446 4.60374 4.46446 2.96375 9.07446 2.96375ZM14.8245 4.02373V6.21373C14.8245 8.79373 15.4945 9.46373 18.0745 9.46373H20.2645L14.8245 4.02373Z" fill="black" fill-opacity="0.66"/>
</g>
</g>
</svg>
