<svg width="23" height="22" viewBox="0 0 23 22" fill="none" xmlns="http://www.w3.org/2000/svg">
<g id="vuesax/outline/document-copy">
<g id="document-copy">
<g id="Union">
<path fill-rule="evenodd" clip-rule="evenodd" d="M14.5503 1.59088H9.30029C8.06029 1.59088 7.05029 2.60088 7.05029 3.84088C7.05029 4.25088 6.71029 4.59088 6.30029 4.59088C5.89029 4.59088 5.55029 4.25088 5.55029 3.84088C5.55029 1.77088 7.23029 0.0908813 9.30029 0.0908813H14.8999C14.9694 0.0908813 15.0369 0.100656 15.1011 0.11889C15.3574 0.0473995 15.6338 0.123274 15.8303 0.31087L21.8303 6.31087C21.879 6.35956 21.9201 6.41469 21.9532 6.47416C22.0152 6.58299 22.0507 6.70827 22.0507 6.84088V13.0309C22.0507 14.9909 20.4507 16.5909 18.4907 16.5909C18.0807 16.5909 17.7407 16.2509 17.7407 15.8409C17.7407 15.4309 18.0807 15.0909 18.4907 15.0909C19.6307 15.0909 20.5507 14.1609 20.5507 13.0309V7.59087H18.3003C15.6403 7.59087 14.5503 6.50087 14.5503 3.84087V1.59088ZM16.0503 3.84087V2.65087L19.4903 6.09087H18.3003C16.4703 6.09087 16.0503 5.67087 16.0503 3.84087Z" fill="black" fill-opacity="0.66"/>
<path fill-rule="evenodd" clip-rule="evenodd" d="M6.90029 21.5909H10.7003C15.0903 21.5909 17.0503 19.6309 17.0503 15.2409V12.2409C17.0503 12.1093 17.0153 11.985 16.9542 11.8768C16.9209 11.8163 16.8793 11.7603 16.8299 11.7109L10.4299 5.31087C10.412 5.29382 10.3935 5.27769 10.3744 5.26252C10.2446 5.15556 10.0791 5.09088 9.90029 5.09088H6.90029C2.51029 5.09088 0.550293 7.05088 0.550293 11.4409V15.2409C0.550293 19.6309 2.51029 21.5909 6.90029 21.5909ZM9.1499 6.59088H6.90029C3.32029 6.59088 2.05029 7.86088 2.05029 11.4409V15.2409C2.05029 18.8209 3.32029 20.0909 6.90029 20.0909H10.7003C14.2803 20.0909 15.5503 18.8209 15.5503 15.2409V12.9909H13.0999C10.2899 12.9909 9.1499 11.8509 9.1499 9.04087V6.59088ZM10.6499 9.04087V7.65087L14.4899 11.4909H13.0999C11.1099 11.4909 10.6499 11.0309 10.6499 9.04087Z" fill="black" fill-opacity="0.66"/>
</g>
</g>
</g>
</svg>
