<svg width="20" height="22" viewBox="0 0 20 22" fill="none" xmlns="http://www.w3.org/2000/svg">
<g id="vuesax/outline/warning-2">
<g id="warning-2">
<g id="Union">
<path d="M10 12.75C9.59 12.75 9.25 12.41 9.25 12V6.75C9.25 6.34 9.59 6 10 6C10.41 6 10.75 6.34 10.75 6.75V12C10.75 12.41 10.41 12.75 10 12.75Z" fill="black" fill-opacity="0.66"/>
<path d="M10 16.25C9.73 16.25 9.47998 16.15 9.28998 15.96C9.19998 15.86 9.13001 15.75 9.07001 15.63C9.02001 15.51 9 15.38 9 15.25C9 14.99 9.10998 14.73 9.28998 14.54C9.65998 14.17 10.34 14.17 10.71 14.54C10.89 14.73 11 14.99 11 15.25C11 15.38 10.97 15.51 10.92 15.63C10.87 15.75 10.8 15.86 10.71 15.96C10.52 16.15 10.27 16.25 10 16.25Z" fill="black" fill-opacity="0.66"/>
<path fill-rule="evenodd" clip-rule="evenodd" d="M8.05017 21.23C8.65017 21.58 9.33018 21.75 10.0002 21.75C10.6702 21.75 11.3502 21.58 11.9502 21.23L17.8902 17.8C19.0902 17.1 19.8402 15.81 19.8402 14.42V7.57999C19.8402 6.18999 19.0902 4.89999 17.8902 4.19999L11.9502 0.769995C10.7402 0.0699951 9.25017 0.0699951 8.05017 0.769995L2.11017 4.19999C0.910168 4.89999 0.160156 6.18999 0.160156 7.57999V14.42C0.160156 15.81 0.910168 17.1 2.11017 17.8L8.05017 21.23ZM8.80017 2.06998C9.17017 1.85998 9.59018 1.74998 10.0002 1.74998C10.4102 1.74998 10.8302 1.85998 11.1902 2.06998L17.1302 5.49998C17.8702 5.92998 18.3302 6.72999 18.3302 7.57999V14.42C18.3302 15.28 17.8702 16.07 17.1302 16.5L11.1902 19.93C10.4602 20.36 9.54017 20.36 8.80017 19.93L2.86017 16.5C2.12017 16.07 1.66016 15.27 1.66016 14.42V7.57999C1.66016 6.71999 2.12017 5.92998 2.86017 5.49998L8.80017 2.06998Z" fill="black" fill-opacity="0.66"/>
</g>
</g>
</g>
</svg>
