<svg width="25" height="25" viewBox="0 0 25 25" fill="none" xmlns="http://www.w3.org/2000/svg">
<g id="data-invalid">
<g id="Union">
<path fill-rule="evenodd" clip-rule="evenodd" d="M14.5503 22.4637C14.5503 22.8737 14.8903 23.2137 15.3003 23.2137C15.7103 23.2137 16.0503 22.8737 16.0503 22.4637V20.7137H16.7998C17.5498 20.7137 18.0998 20.6837 18.5398 20.6237C21.8898 20.2537 22.5498 18.2637 22.5498 14.9637V9.96375C22.5498 6.66374 21.8998 4.68374 18.5698 4.31375C18.0998 4.24375 17.5498 4.21375 16.7998 4.21375H16.0503V2.46375C16.0503 2.05375 15.7103 1.71375 15.3003 1.71375C14.8903 1.71375 14.5503 2.05375 14.5503 2.46375V22.4637ZM16.0503 5.71375V19.2137H16.7998C17.4798 19.2137 17.9598 19.1837 18.3498 19.1337C20.3798 18.9137 21.0498 18.2737 21.0498 14.9637V9.96375C21.0498 6.65375 20.3798 6.02375 18.3798 5.79375C17.9598 5.73375 17.4798 5.71375 16.7998 5.71375H16.0503Z" fill="black" fill-opacity="0.66"/>
<path d="M11.3203 20.7137H7.80029C7.05029 20.7137 6.50029 20.6837 6.03029 20.6137C2.70029 20.2437 2.05029 18.2637 2.05029 14.9637V9.96375C2.05029 6.66374 2.71029 4.67375 6.06029 4.30375C6.50029 4.24375 7.05029 4.21375 7.80029 4.21375H11.2603C11.6703 4.21375 12.0103 4.55375 12.0103 4.96375C12.0103 5.37374 11.6703 5.71375 11.2603 5.71375H7.80029C7.12029 5.71375 6.64029 5.74374 6.25029 5.79375C4.22029 6.01375 3.55029 6.65375 3.55029 9.96375V14.9637C3.55029 18.2737 4.22029 18.9037 6.22029 19.1337C6.64029 19.1937 7.12029 19.2137 7.80029 19.2137H11.3203C11.7303 19.2137 12.0703 19.5537 12.0703 19.9637C12.0703 20.3737 11.7303 20.7137 11.3203 20.7137Z" fill="black" fill-opacity="0.66"/>
<path d="M8.30029 13.8037C7.89029 13.8037 7.55029 13.4637 7.55029 13.0537V8.21375C7.55029 7.80375 7.89029 7.46375 8.30029 7.46375C8.71029 7.46375 9.05029 7.80375 9.05029 8.21375V13.0437C9.05029 13.4637 8.72029 13.8037 8.30029 13.8037Z" fill="black" fill-opacity="0.66"/>
<path d="M7.30029 15.9537C7.30029 16.5037 7.75029 16.9537 8.30029 16.9537C8.86029 16.9537 9.30029 16.5037 9.30029 15.9537C9.30029 15.4037 8.85029 14.9537 8.30029 14.9537C7.74029 14.9537 7.30029 15.4037 7.30029 15.9537Z" fill="black" fill-opacity="0.66"/>
</g>
</g>
</svg>
