<svg width="20" height="22" viewBox="0 0 20 22" fill="none" xmlns="http://www.w3.org/2000/svg">
<g id="vuesax/outline/edit-2">
<g id="edit-2">
<g id="Union">
<path fill-rule="evenodd" clip-rule="evenodd" d="M3.5312 18.3609C2.9212 18.3609 2.3512 18.1509 1.9412 17.7609C1.4212 17.2709 1.1712 16.5309 1.2612 15.7309L1.6312 12.4909C1.7012 11.8809 2.0712 11.0709 2.5012 10.6309L10.7112 1.94087C12.7612 -0.229131 14.9012 -0.28913 17.0712 1.76087C19.2412 3.81087 19.3012 5.95087 17.2512 8.12087L9.0412 16.8109C8.6212 17.2609 7.8412 17.6809 7.2312 17.7809L4.0112 18.3309C3.95017 18.3345 3.89171 18.3393 3.83445 18.3441C3.7322 18.3527 3.63376 18.3609 3.5312 18.3609ZM13.9212 1.75087C13.1512 1.75087 12.4812 2.23087 11.8012 2.95087L10.7044 4.1131C11.1769 6.24685 12.893 7.88522 15.046 8.25065L16.1512 7.08087C17.3912 5.76087 17.8412 4.54087 16.0312 2.84087C15.2312 2.07087 14.5412 1.75087 13.9212 1.75087ZM3.5912 11.6509L9.50988 5.37894C10.2493 7.3481 11.857 8.87003 13.862 9.50386L7.9412 15.7709C7.7412 15.9809 7.2612 16.2409 6.9712 16.2909L3.7512 16.8409C3.4212 16.8909 3.1512 16.8309 2.9712 16.6609C2.7912 16.4909 2.7112 16.2209 2.7512 15.8909L3.1212 12.6509C3.1612 12.3609 3.3912 11.8609 3.5912 11.6509Z" fill="black" fill-opacity="0.66"/>
<path d="M0.991211 21.5908H18.9912C19.4012 21.5908 19.7412 21.2508 19.7412 20.8408C19.7412 20.4308 19.4012 20.0908 18.9912 20.0908H0.991211C0.581211 20.0908 0.241211 20.4308 0.241211 20.8408C0.241211 21.2508 0.581211 21.5908 0.991211 21.5908Z" fill="black" fill-opacity="0.66"/>
</g>
</g>
</g>
</svg>
