<svg width="23" height="23" viewBox="0 0 23 23" fill="#F9DCCB" xmlns="http://www.w3.org/2000/svg">
<g id="Group 1636">
<g id="Union">
<path d="M7.06793 15.8408C7.06793 16.2508 7.40793 16.5908 7.81793 16.5908C8.22793 16.5908 8.56793 16.2608 8.56793 15.8408V15.6309C8.56793 15.3509 8.68794 15.1808 9.07794 14.9208C9.38794 14.7108 10.2279 14.1409 10.2279 13.0009C10.2279 11.6709 9.14793 10.5908 7.81793 10.5908C6.48793 10.5908 5.40796 11.6709 5.40796 13.0009C5.40796 13.4109 5.74796 13.7509 6.15796 13.7509C6.56796 13.7509 6.90796 13.4109 6.90796 13.0009C6.90796 12.5009 7.31793 12.0908 7.81793 12.0908C8.31793 12.0908 8.72791 12.5009 8.72791 13.0009C8.72791 13.2609 8.60791 13.4308 8.23792 13.6808L8.22632 13.6888C7.89789 13.9144 7.06793 14.4846 7.06793 15.6309V15.8408Z" fill="black" fill-opacity="0.66"/>
<path d="M7.81812 19.0811C7.39812 19.0811 7.06812 18.7411 7.06812 18.3311C7.06812 17.9211 7.40812 17.5811 7.81812 17.5811C8.22812 17.5811 8.56812 17.9211 8.56812 18.3311C8.56812 18.7411 8.23812 19.0811 7.81812 19.0811Z" fill="black" fill-opacity="0.66"/>
<path fill-rule="evenodd" clip-rule="evenodd" d="M14.408 22.3408H8.40796C2.97796 22.3408 0.657959 20.0208 0.657959 14.5908V8.59082C0.657959 3.16082 2.97796 0.84082 8.40796 0.84082H13.408C13.582 0.84082 13.7434 0.902057 13.8715 1.00389C13.8945 1.02153 13.9167 1.04052 13.938 1.06081L21.938 9.06081C21.9949 9.11771 22.0415 9.18342 22.0768 9.25457C22.1286 9.35606 22.158 9.47042 22.158 9.59082V14.5908C22.158 20.0208 19.838 22.3408 14.408 22.3408ZM8.40796 2.34082H12.658V5.59081C12.658 9.01081 13.988 10.3408 17.408 10.3408H20.658V14.5908C20.658 19.2008 19.018 20.8408 14.408 20.8408H8.40796C3.79796 20.8408 2.15796 19.2008 2.15796 14.5908V8.59082C2.15796 3.98082 3.79796 2.34082 8.40796 2.34082ZM14.158 3.40081V5.59081C14.158 8.17081 14.828 8.84081 17.408 8.84081H19.598L14.158 3.40081Z" fill="black" fill-opacity="0.66"/>
</g>
</g>
</svg>
