<svg width="25" height="25" viewBox="0 0 25 25" fill="none" xmlns="http://www.w3.org/2000/svg">
<g id="check">
<g id="Union">
<path fill-rule="evenodd" clip-rule="evenodd" d="M14.3359 22.8409C14.3359 23.2509 14.6759 23.5909 15.0859 23.5909C15.4959 23.5909 15.8359 23.2509 15.8359 22.8409V21.0909H16.5855C17.3355 21.0909 17.8855 21.0609 18.3255 21.0009C21.6755 20.6309 22.3355 18.6409 22.3355 15.3409V10.3409C22.3355 7.04088 21.6855 5.06088 18.3555 4.69088C17.8855 4.62088 17.3355 4.59088 16.5855 4.59088H15.8359V2.84088C15.8359 2.43088 15.4959 2.09088 15.0859 2.09088C14.6759 2.09088 14.3359 2.43088 14.3359 2.84088V22.8409ZM15.8359 6.09088V19.5909H16.5855C17.2655 19.5909 17.7455 19.5609 18.1355 19.5109C20.1655 19.2909 20.8355 18.6509 20.8355 15.3409V10.3409C20.8355 7.03088 20.1655 6.40088 18.1655 6.17088C17.7455 6.11088 17.2655 6.09088 16.5855 6.09088H15.8359Z" fill="black" fill-opacity="0.66"/>
<path d="M11.1059 21.0909H7.58594C6.83594 21.0909 6.28594 21.0609 5.81594 20.9909C2.48594 20.6209 1.83594 18.6409 1.83594 15.3409V10.3409C1.83594 7.04088 2.49594 5.05088 5.84594 4.68088C6.28594 4.62088 6.83594 4.59088 7.58594 4.59088H11.0459C11.4559 4.59088 11.7959 4.93088 11.7959 5.34088C11.7959 5.75088 11.4559 6.09088 11.0459 6.09088H7.58594C6.90594 6.09088 6.42594 6.12088 6.03594 6.17088C4.00594 6.39088 3.33594 7.03088 3.33594 10.3409V15.3409C3.33594 18.6509 4.00594 19.2809 6.00594 19.5109C6.42594 19.5709 6.90594 19.5909 7.58594 19.5909H11.1059C11.5159 19.5909 11.8559 19.9309 11.8559 20.3409C11.8559 20.7509 11.5159 21.0909 11.1059 21.0909Z" fill="black" fill-opacity="0.66"/>
<path d="M7.74591 14.0909C7.74591 14.5009 8.08591 14.8409 8.49591 14.8409C8.90591 14.8409 9.24591 14.5109 9.24591 14.0909V13.8809C9.24591 13.6009 9.36592 13.4309 9.75592 13.1709C10.0659 12.9609 10.9059 12.3909 10.9059 11.2509C10.9059 9.92092 9.82591 8.84088 8.49591 8.84088C7.16591 8.84088 6.08594 9.92092 6.08594 11.2509C6.08594 11.6609 6.42594 12.0009 6.83594 12.0009C7.24594 12.0009 7.58594 11.6609 7.58594 11.2509C7.58594 10.7509 7.99591 10.3409 8.49591 10.3409C8.99591 10.3409 9.40588 10.7509 9.40588 11.2509C9.40588 11.5109 9.28589 11.6809 8.91589 11.9309L8.9043 11.9389C8.57587 12.1645 7.74591 12.7347 7.74591 13.8809V14.0909Z" fill="black" fill-opacity="0.66"/>
<path d="M8.49609 17.3311C8.07609 17.3311 7.74609 16.9911 7.74609 16.5811C7.74609 16.1711 8.08609 15.8311 8.49609 15.8311C8.90609 15.8311 9.24609 16.1711 9.24609 16.5811C9.24609 16.9911 8.91609 17.3311 8.49609 17.3311Z" fill="black" fill-opacity="0.66"/>
</g>
</g>
</svg>
