<svg width="23" height="23" viewBox="0 0 23 23" fill="none" xmlns="http://www.w3.org/2000/svg">
<g id="vuesax/outline/direct-send">
<g id="direct-send">
<g id="Union">
<path d="M10.7645 8.46376C10.7645 8.87376 11.1045 9.21376 11.5145 9.21376C11.9245 9.21376 12.2645 8.87376 12.2645 8.46376V3.27372L12.9845 3.99372C13.1345 4.14372 13.3245 4.21372 13.5145 4.21372C13.7045 4.21372 13.8945 4.14372 14.0445 3.99372C14.3345 3.70372 14.3345 3.22372 14.0445 2.93372L12.0805 0.969676C12.0094 0.887811 11.9201 0.821532 11.8166 0.778643C11.8069 0.774444 11.7972 0.770456 11.7874 0.766681C11.6316 0.704642 11.4616 0.700283 11.3061 0.745174C11.1879 0.778777 11.0766 0.841624 10.9845 0.933717L10.9796 0.938729L8.98453 2.93376C8.69453 3.22376 8.69453 3.70376 8.98453 3.99376C9.27453 4.28376 9.75453 4.28376 10.0445 3.99376L10.7645 3.27376V8.46376Z" fill="black" fill-opacity="0.66"/>
<path fill-rule="evenodd" clip-rule="evenodd" d="M20.7645 11.7138H17.1545C16.4845 11.7138 15.8845 12.0838 15.5845 12.6838L14.4145 15.0238C14.2045 15.4538 13.7745 15.7138 13.2945 15.7138H9.76451C9.28451 15.7138 8.85451 15.4538 8.64451 15.0238L7.47451 12.6838C7.17451 12.0838 6.57451 11.7138 5.90451 11.7138H2.26453V11.4637C2.26453 7.5137 3.48453 5.7937 6.62453 5.3337C7.03453 5.2737 7.31453 4.8937 7.25453 4.4837C7.19453 4.0737 6.82453 3.7937 6.40453 3.8537C2.50453 4.4237 0.764526 6.7737 0.764526 11.4637V12.2932C0.751442 12.3481 0.744507 12.4052 0.744507 12.4638C0.744507 12.5223 0.751442 12.5795 0.764526 12.6344V14.4637C0.764526 19.8937 3.08453 22.2137 8.51453 22.2137H14.5145C19.9445 22.2137 22.2645 19.8937 22.2645 14.4637V11.4637C22.2645 6.7737 20.5245 4.4237 16.6245 3.8537C16.2145 3.7937 15.8345 4.0737 15.7745 4.4837C15.7145 4.8937 15.9945 5.2737 16.4045 5.3337C19.5445 5.7937 20.7645 7.5137 20.7645 11.4637V11.7138ZM13.2745 17.2138H9.74451C8.69451 17.2138 7.75451 16.6338 7.28451 15.6938L6.11451 13.3538C6.07451 13.2638 5.98451 13.2138 5.89451 13.2138H2.26453V14.4637C2.26453 19.0737 3.90453 20.7137 8.51453 20.7137H14.5145C19.1245 20.7137 20.7645 19.0737 20.7645 14.4637V13.2138H17.1545C17.0545 13.2138 16.9745 13.2638 16.9345 13.3538L15.7645 15.6938C15.2645 16.6338 14.3245 17.2138 13.2745 17.2138Z" fill="black" fill-opacity="0.66"/>
</g>
</g>
</g>
</svg>
