<svg width="24" height="24" viewBox="0 0 24 24" fill="none" xmlns="http://www.w3.org/2000/svg">
<path fill-rule="evenodd" clip-rule="evenodd" d="M11.9999 11.7501C10.2999 11.7501 8.91992 10.37 8.91992 8.67004C8.91992 6.97004 10.2999 5.59009 11.9999 5.59009C13.6999 5.59009 15.0799 6.97004 15.0799 8.67004C15.0799 10.37 13.6999 11.7501 11.9999 11.7501ZM11.9999 7.09009C11.1299 7.09009 10.4199 7.80004 10.4199 8.67004C10.4199 9.54004 11.1299 10.2501 11.9999 10.2501C12.8699 10.2501 13.5799 9.54004 13.5799 8.67004C13.5799 7.80004 12.8699 7.09009 11.9999 7.09009Z" fill="white"/>
<path d="M15.25 16.6601C15.25 17.0701 15.59 17.4101 16 17.4101C16.41 17.4101 16.75 17.0701 16.75 16.6601C16.75 14.4501 14.62 12.6501 12 12.6501C9.38 12.6501 7.25 14.4501 7.25 16.6601C7.25 17.0701 7.59 17.4101 8 17.4101C8.41 17.4101 8.75 17.0701 8.75 16.6601C8.75 15.2801 10.21 14.1501 12 14.1501C13.79 14.1501 15.25 15.2801 15.25 16.6601Z" fill="white"/>
<path fill-rule="evenodd" clip-rule="evenodd" d="M12.0002 22.7499C11.3302 22.7499 10.6502 22.5798 10.0502 22.2298L4.11016 18.7998C2.91016 18.0998 2.16016 16.8098 2.16016 15.4198V8.57987C2.16016 7.18987 2.91016 5.89987 4.11016 5.19987L10.0502 1.76987C11.2502 1.06987 12.7402 1.06987 13.9502 1.76987L19.8902 5.19987C21.0902 5.89987 21.8402 7.18987 21.8402 8.57987V15.4198C21.8402 16.8098 21.0902 18.0998 19.8902 18.7998L13.9502 22.2298C13.3502 22.5798 12.6702 22.7499 12.0002 22.7499ZM12.0002 2.74985C11.5902 2.74985 11.1702 2.85986 10.8002 3.06986L4.86016 6.49985C4.12016 6.92985 3.66016 7.71987 3.66016 8.57987V15.4198C3.66016 16.2698 4.12016 17.0699 4.86016 17.4999L10.8002 20.9298C11.5402 21.3598 12.4602 21.3598 13.2002 20.9298L19.1402 17.4999C19.8802 17.0699 20.3402 16.2798 20.3402 15.4198V8.57987C20.3402 7.72987 19.8802 6.92985 19.1402 6.49985L13.2002 3.06986C12.8302 2.85986 12.4102 2.74985 12.0002 2.74985Z" fill="white"/>
</svg>
