<svg width="24" height="24" viewBox="0 0 24 24" fill="none" xmlns="http://www.w3.org/2000/svg">
<path d="M15.51 12.8403C13.83 12.4503 12.6 11.5403 11.73 10.0603C11.46 9.60032 11.26 9.07032 11.1 8.40032C10.91 7.63032 10.23 7.18032 9.45999 7.31032C9.04999 7.39032 8.50999 7.65032 8.29999 8.47032C7.71999 10.7403 6.33999 12.1603 4.08999 12.7903C3.75999 12.8803 2.60999 13.2203 2.78999 14.4403C2.91999 15.3203 3.66999 15.5803 4.06999 15.6803C5.79999 16.1303 7.02999 17.1103 7.81999 18.6803C7.98999 19.0203 8.10999 19.4103 8.23999 19.8303L8.31999 20.0903C8.52999 20.7803 9.07999 21.2103 9.69999 21.2103C9.80999 21.2103 9.91 21.2003 10.02 21.1703C10.59 21.0403 10.96 20.6403 11.14 19.9803C11.74 17.6903 13.15 16.2903 15.44 15.6703C15.61 15.6303 15.84 15.5603 16.06 15.4103C16.55 15.0703 16.77 14.5303 16.65 13.9703C16.52 13.3903 16.12 12.9903 15.51 12.8403ZM9.70999 19.5203L9.66999 19.4003C9.52999 18.9403 9.38999 18.4703 9.15999 18.0103C8.17999 16.0703 6.59999 14.8003 4.47999 14.2503C4.47999 14.2503 4.49999 14.2503 4.50999 14.2503C7.21999 13.4803 8.98 11.7303 9.72 9.03032C9.91 9.72032 10.14 10.3103 10.45 10.8303C11.48 12.6003 13.01 13.7503 15 14.2503C12.25 15.0103 10.47 16.7803 9.72999 19.5303L9.70999 19.5203Z" fill="white"/>
<path d="M20.87 6.19999C20.66 5.96999 20.37 5.79999 19.99 5.68999C19.36 5.50999 18.92 5.17999 18.62 4.67999C18.51 4.47999 18.42 4.23999 18.33 3.97999L18.28 3.84999C18.06 3.22999 17.57 2.83999 16.96 2.79999L16.61 2.85999C16.51 2.88999 16.42 2.91999 16.33 2.95999C15.72 3.21999 15.57 3.76999 15.47 4.09999C15.31 4.68999 14.99 5.11999 14.51 5.39999C14.28 5.53999 13.99 5.63999 13.63 5.75999C13.16 5.91999 12.81 6.26999 12.67 6.69999C12.53 7.11999 12.61 7.56999 12.87 7.94999C13.17 8.37999 13.6 8.48999 13.86 8.55999C14.47 8.71999 14.9 9.04999 15.19 9.54999C15.3 9.74999 15.39 9.98999 15.48 10.25L15.56 10.48C15.72 10.92 16.07 11.25 16.5 11.38C16.63 11.42 16.77 11.44 16.9 11.44C17.2 11.44 17.49 11.34 17.74 11.16C18.14 10.87 18.26 10.45 18.33 10.19C18.5 9.57999 18.82 9.13999 19.32 8.84999C19.52 8.72999 19.76 8.64999 20.02 8.54999L20.24 8.46999C20.71 8.29999 21.05 7.91999 21.17 7.44999C21.28 7.00999 21.17 6.55999 20.86 6.21999L20.87 6.19999ZM19.53 7.12999C19.23 7.23999 18.9 7.35999 18.58 7.53999C17.75 8.02999 17.18 8.76999 16.91 9.74999V9.72999C16.8 9.43999 16.68 9.09999 16.5 8.77999C16.02 7.94999 15.25 7.36999 14.29 7.10999C14.61 6.99999 14.96 6.86999 15.29 6.66999C16.1 6.18999 16.66 5.43999 16.93 4.47999C17.03 4.77999 17.15 5.11999 17.34 5.43999C17.82 6.25999 18.56 6.82999 19.54 7.11999L19.53 7.12999Z" fill="white"/>
</svg>
