<svg width="25" height="25" viewBox="0 0 25 25" fill="none" xmlns="http://www.w3.org/2000/svg">
<path d="M16.0085 13.3413C14.3285 12.9513 13.0985 12.0413 12.2285 10.5613C11.9585 10.1013 11.7585 9.5713 11.5985 8.9013C11.4085 8.1313 10.7285 7.6813 9.95853 7.8113C9.54853 7.8913 9.00853 8.1513 8.79853 8.9713C8.21853 11.2413 6.83853 12.6613 4.58853 13.2913C4.25853 13.3813 3.10853 13.7213 3.28853 14.9413C3.41853 15.8213 4.16853 16.0813 4.56853 16.1813C6.29853 16.6313 7.52853 17.6113 8.31853 19.1813C8.48853 19.5213 8.60853 19.9113 8.73853 20.3313L8.81853 20.5913C9.02853 21.2813 9.57853 21.7113 10.1985 21.7113C10.3085 21.7113 10.4085 21.7013 10.5185 21.6713C11.0885 21.5413 11.4585 21.1413 11.6385 20.4813C12.2385 18.1913 13.6485 16.7913 15.9385 16.1713C16.1085 16.1313 16.3385 16.0613 16.5585 15.9113C17.0485 15.5713 17.2685 15.0313 17.1485 14.4713C17.0185 13.8913 16.6185 13.4913 16.0085 13.3413ZM10.2085 20.0213L10.1685 19.9013C10.0285 19.4413 9.88853 18.9713 9.65853 18.5113C8.67853 16.5713 7.09853 15.3013 4.97853 14.7513C4.97853 14.7513 4.99853 14.7513 5.00853 14.7513C7.71853 13.9813 9.47853 12.2313 10.2185 9.5313C10.4085 10.2213 10.6385 10.8113 10.9485 11.3313C11.9785 13.1013 13.5085 14.2513 15.4985 14.7513C12.7485 15.5113 10.9685 17.2813 10.2285 20.0313L10.2085 20.0213Z" fill="black" fill-opacity="0.66"/>
<path d="M21.3697 6.70078C21.1597 6.47078 20.8697 6.30078 20.4897 6.19078C19.8597 6.01078 19.4197 5.68078 19.1197 5.18078C19.0097 4.98078 18.9197 4.74078 18.8297 4.48078L18.7797 4.35078C18.5597 3.73078 18.0697 3.34078 17.4597 3.30078L17.1097 3.36078C17.0097 3.39078 16.9197 3.42078 16.8297 3.46078C16.2197 3.72078 16.0697 4.27078 15.9697 4.60078C15.8097 5.19078 15.4897 5.62078 15.0097 5.90078C14.7797 6.04078 14.4897 6.14078 14.1297 6.26078C13.6597 6.42078 13.3097 6.77078 13.1697 7.20078C13.0297 7.62078 13.1097 8.07078 13.3697 8.45078C13.6697 8.88078 14.0997 8.99078 14.3597 9.06078C14.9697 9.22078 15.3997 9.55078 15.6897 10.0508C15.7997 10.2508 15.8897 10.4908 15.9797 10.7508L16.0597 10.9808C16.2197 11.4208 16.5697 11.7508 16.9997 11.8808C17.1297 11.9208 17.2697 11.9408 17.3997 11.9408C17.6997 11.9408 17.9897 11.8408 18.2397 11.6608C18.6397 11.3708 18.7597 10.9508 18.8297 10.6908C18.9997 10.0808 19.3197 9.64078 19.8197 9.35078C20.0197 9.23078 20.2597 9.15078 20.5197 9.05078L20.7397 8.97078C21.2097 8.80078 21.5497 8.42078 21.6697 7.95078C21.7797 7.51078 21.6697 7.06078 21.3597 6.72078L21.3697 6.70078ZM20.0297 7.63078C19.7297 7.74078 19.3997 7.86078 19.0797 8.04078C18.2497 8.53078 17.6797 9.27078 17.4097 10.2508V10.2308C17.2997 9.94078 17.1797 9.60078 16.9997 9.28078C16.5197 8.45078 15.7497 7.87078 14.7897 7.61078C15.1097 7.50078 15.4597 7.37078 15.7897 7.17078C16.5997 6.69078 17.1597 5.94078 17.4297 4.98078C17.5297 5.28078 17.6497 5.62078 17.8397 5.94078C18.3197 6.76078 19.0597 7.33078 20.0397 7.62078L20.0297 7.63078Z" fill="black" fill-opacity="0.66"/>
</svg>
