<?xml version="1.0" encoding="utf-8"?>
<svg xmlns="http://www.w3.org/2000/svg" width="22" height="22" viewBox="0 0 22 22" fill="none">
<g id="vuesax/outline/arrow-left">
<g id="arrow-left">
<g id="Union">
<path d="M9.35981 11.75L11.0797 13.4699C11.3697 13.7599 11.3697 14.2399 11.0797 14.5299C10.9297 14.6799 10.7397 14.7499 10.5497 14.7499C10.3597 14.7499 10.1697 14.6799 10.0197 14.5299L7.01975 11.5299C6.72975 11.2399 6.72975 10.7599 7.01975 10.4699L10.0197 7.46994C10.3097 7.17994 10.7897 7.17994 11.0797 7.46994C11.3697 7.75994 11.3697 8.23994 11.0797 8.52994L9.35969 10.25H14.5498C14.9598 10.25 15.2998 10.59 15.2998 11C15.2998 11.41 14.9598 11.75 14.5498 11.75H9.35981Z" fill="black" fill-opacity="0.56"/>
<path fill-rule="evenodd" clip-rule="evenodd" d="M11.0498 21.75C5.1198 21.75 0.299805 16.93 0.299805 11C0.299805 5.07 5.1198 0.25 11.0498 0.25C16.9798 0.25 21.7998 5.07 21.7998 11C21.7998 16.93 16.9798 21.75 11.0498 21.75ZM11.0498 1.75C5.9498 1.75 1.7998 5.9 1.7998 11C1.7998 16.1 5.9498 20.25 11.0498 20.25C16.1498 20.25 20.2998 16.1 20.2998 11C20.2998 5.9 16.1498 1.75 11.0498 1.75Z" fill="black" fill-opacity="0.56"/>
</g>
</g>
</g>
</svg>