<?xml version="1.0" encoding="utf-8"?>
<svg xmlns="http://www.w3.org/2000/svg" width="15" height="20" viewBox="0 0 15 20" fill="none">
<g id="vuesax/outline/arrow-up">
<g id="arrow-up">
<path id="Union" d="M13.0401 8.09994C13.1901 8.24994 13.3801 8.31994 13.5701 8.31994C13.7601 8.31994 13.9601 8.24994 14.1001 8.09994C14.3901 7.80994 14.3901 7.32994 14.1001 7.03994L8.03012 0.969941C7.74012 0.679941 7.26012 0.679941 6.97012 0.969941L0.900117 7.03994C0.610117 7.32994 0.610117 7.80994 0.900117 8.09994C1.19012 8.38994 1.67012 8.38994 1.96012 8.09994L6.75 3.31006V18.4999C6.75 18.9099 7.09 19.2499 7.5 19.2499C7.91 19.2499 8.25 18.9099 8.25 18.4999V3.30982L13.0401 8.09994Z" fill="black" fill-opacity="0.56"/>
</g>
</g>
</svg>