<svg width="24" height="24" viewBox="0 0 24 24" fill="none" xmlns="http://www.w3.org/2000/svg">
<path fill-rule="evenodd" clip-rule="evenodd" d="M2.21656 16.8779L2.21483 16.8812C1.31349 18.5891 1.34634 19.9806 1.864 20.9196C2.37831 21.8335 3.45126 22.5 5.23832 22.5H18.7571C20.5465 22.5 21.6199 21.8318 22.1334 20.916C22.6547 19.9864 22.6881 18.611 21.7789 16.878L21.7788 16.8779L15.0195 3.99217C15.0195 3.99213 15.0195 3.9921 15.0194 3.99207C14.0396 2.12458 12.9121 1.5 11.9977 1.5C11.0833 1.5 9.95576 2.12458 8.97594 3.99207C8.97592 3.9921 8.9759 3.99213 8.97589 3.99217L2.21656 16.8779ZM0.553603 21.6496C1.40131 23.1614 3.06327 24 5.23832 24H18.7571C20.9321 24 22.5941 23.1614 23.4418 21.6496C24.2895 20.1378 24.1668 18.2008 23.1072 16.1811L16.3478 3.29528C15.2324 1.16929 13.6931 0 11.9977 0C10.3023 0 8.76301 1.16929 7.6476 3.29528L0.888226 16.1811C-0.171412 18.189 -0.282953 20.1378 0.553603 21.6496Z" fill="white"/>
</svg>
