<svg width="22" height="22" viewBox="0 0 22 22" fill="none" xmlns="http://www.w3.org/2000/svg">
<path fill-rule="evenodd" clip-rule="evenodd" d="M17.06 21.16H4.93998C2.98998 21.16 1.49998 20.45 0.739976 19.17C-0.0100241 17.89 0.0899758 16.24 1.03998 14.54L7.09998 3.62997C8.09998 1.82997 9.47998 0.839966 11 0.839966C12.52 0.839966 13.9 1.82997 14.9 3.62997L20.96 14.54C21.91 16.25 22.02 17.89 21.26 19.17C20.5 20.45 19.01 21.16 17.06 21.16ZM10.25 2.49315C9.57937 2.76869 8.94386 3.40922 8.40998 4.35997L2.35998 15.27C1.81533 16.2471 1.63635 17.1601 1.82818 17.9011L10.25 12.004V2.49315ZM13.59 4.35997C13.0561 3.40924 12.4206 2.76872 11.75 2.49317V12.004L20.1889 17.913C20.3854 17.1723 20.2073 16.26 19.66 15.27L13.59 4.35997ZM11 13.3L2.70579 19.1087C3.25599 19.4732 4.02429 19.67 4.94998 19.67H17.07C17.993 19.67 18.7552 19.4787 19.305 19.1162L11 13.3Z" fill="white"/>
</svg>
