<?xml version="1.0" encoding="utf-8"?>
<svg xmlns="http://www.w3.org/2000/svg" width="67" height="66" viewBox="0 0 67 66" fill="none">
<path d="M65.052 56.9357H61.788V40.6157H59.612V56.9357H42.6528C41.3744 56.9357 40.1504 57.4389 39.2528 58.3365C38.7632 58.8261 38.0968 59.1117 37.3896 59.1117H29.5832C28.8896 59.1117 28.2232 58.8397 27.72 58.3365C26.8224 57.4389 25.5984 56.9221 24.32 56.9357H7.388V25.3837C7.388 24.1869 8.3672 23.2077 9.564 23.2077V21.0317C7.1568 21.0317 5.212 22.9765 5.212 25.3837V56.9357H1.948C1.3496 56.9357 0.860001 57.4253 0.860001 58.0237V61.2877C0.860001 63.6949 2.8048 65.6397 5.212 65.6397H61.788C64.1952 65.6397 66.14 63.6949 66.14 61.2877V58.0237C66.14 57.4253 65.6504 56.9357 65.052 56.9357ZM63.964 61.2877C63.964 62.4845 62.9848 63.4637 61.788 63.4637H5.212C4.0152 63.4637 3.036 62.4845 3.036 61.2877V59.1117H24.3472C25.0408 59.1117 25.7072 59.3837 26.2104 59.8869C27.108 60.7845 28.332 61.3013 29.6104 61.2877H37.4168C38.6952 61.2877 39.9192 60.7845 40.8168 59.8869C41.3064 59.3973 41.9728 59.1117 42.68 59.1117H63.964V61.2877Z" fill="#1B75BC"/>
<path d="M55.26 44.9678H53.084V54.7598H55.26V44.9678Z" fill="#1E417A"/>
<path d="M26.972 12.3281H16.092C13.6848 12.3281 11.74 14.2729 11.74 16.6801V54.7601H13.916V16.6801C13.916 15.4833 14.8952 14.5041 16.092 14.5041H26.972V12.3281Z" fill="#1E417A"/>
<path d="M19.356 27.5601C17.5472 27.5601 16.092 29.0153 16.092 30.8241C16.092 32.6329 17.5472 34.0881 19.356 34.0881C21.1648 34.0881 22.62 32.6329 22.62 30.8241C22.62 29.0289 21.1512 27.5601 19.356 27.5601ZM19.356 31.9121C18.7576 31.9121 18.268 31.4225 18.268 30.8241C18.268 30.2257 18.7576 29.7361 19.356 29.7361C19.9544 29.7361 20.444 30.2257 20.444 30.8241C20.444 31.4225 19.9544 31.9121 19.356 31.9121Z" fill="#FF9800"/>
<path d="M19.356 36.2637C17.5472 36.2637 16.092 37.7189 16.092 39.5277C16.092 41.3365 17.5472 42.7917 19.356 42.7917C21.1648 42.7917 22.62 41.3365 22.62 39.5277C22.62 37.7325 21.1512 36.2637 19.356 36.2637ZM19.356 40.6157C18.7576 40.6157 18.268 40.1261 18.268 39.5277C18.268 38.9293 18.7576 38.4397 19.356 38.4397C19.9544 38.4397 20.444 38.9293 20.444 39.5277C20.444 40.1261 19.9544 40.6157 19.356 40.6157Z" fill="#FF9800"/>
<path d="M28.06 29.1782H24.796V31.3542H28.06V29.1782Z" fill="#1B75BC"/>
<path d="M45.2368 38.1406H24.796V40.3166H45.2368V38.1406Z" fill="#1B75BC"/>
<path d="M19.356 44.9678C17.5472 44.9678 16.092 46.423 16.092 48.2318C16.092 50.0406 17.5472 51.4958 19.356 51.4958C21.1648 51.4958 22.62 50.0406 22.62 48.2318C22.62 46.4366 21.1512 44.9678 19.356 44.9678ZM19.356 49.3198C18.7576 49.3198 18.268 48.8302 18.268 48.2318C18.268 47.6334 18.7576 47.1438 19.356 47.1438C19.9544 47.1438 20.444 47.6334 20.444 48.2318C20.444 48.8302 19.9544 49.3198 19.356 49.3198Z" fill="#FF9800"/>
<path d="M45.468 47.0894H24.796V49.2654H45.468V47.0894Z" fill="#1B75BC"/>
<path d="M26.972 20.2158H16.092V22.3918H26.972V20.2158Z" fill="#1B75BC"/>
<path d="M30.282 4.2793C30.282 2.62244 31.6251 1.2793 33.282 1.2793H61.3011C62.958 1.2793 64.3011 2.62244 64.3011 4.2793V31.6641C64.3011 33.2053 63.1332 34.4958 61.5996 34.6492L56.1723 35.1919C55.4832 35.2608 54.8392 35.566 54.3495 36.0557L49.5901 40.8151C49.2508 41.1544 48.6707 40.9141 48.6707 40.4342V36.8229C48.6707 35.7192 47.7905 34.8167 46.6871 34.7891L33.207 34.4521C31.5799 34.4115 30.282 33.0807 30.282 31.4531V4.2793Z" fill="white"/>
<path d="M60.7 0.359863H34.588C31.5824 0.359863 29.148 2.79426 29.148 5.79986V30.0759C29.148 33.0815 31.5824 35.5159 34.588 35.5159H47.644V42.2207C47.644 42.8191 48.1336 43.1319 48.732 43.1319C49.0176 43.1319 49.3032 43.0231 49.5072 42.8191L56.8104 35.5159H60.7C63.7056 35.5159 66.14 33.0815 66.14 30.0759V5.79986C66.14 2.79426 63.7056 0.359863 60.7 0.359863ZM63.964 30.0759C63.964 31.8711 62.4952 33.3399 60.7 33.3399H56.348C56.0624 33.3399 55.7768 33.4487 55.5728 33.6527L49.82 39.4191V34.4279C49.82 33.8295 49.3304 33.3399 48.732 33.3399H34.588C32.7928 33.3399 31.324 31.8711 31.324 30.0759V5.79986C31.324 4.00466 32.7928 2.53586 34.588 2.53586H60.7C62.4952 2.53586 63.964 4.00466 63.964 5.79986V30.0759Z" fill="#1E417A"/>
</svg>