<svg width="22" height="22" viewBox="0 0 22 22" fill="none" xmlns="http://www.w3.org/2000/svg">
<path d="M10.0048 16.575C10.0048 16.985 10.3448 17.325 10.7548 17.325C11.1648 17.325 11.5048 16.985 11.5048 16.575V13.575C11.5048 13.165 11.1648 12.825 10.7548 12.825C10.3448 12.825 10.0048 13.165 10.0048 13.575V16.575Z" fill="black"/>
<path fill-rule="evenodd" clip-rule="evenodd" d="M5.15484 21.135H16.3548C18.1348 21.135 19.8348 19.705 20.1348 17.935L21.4648 9.97502C21.6648 8.73502 21.0648 7.14502 20.0848 6.35502L13.1548 0.815017C11.8048 -0.264983 9.69484 -0.274983 8.35484 0.805017L1.42484 6.35502C0.434843 7.14502 -0.175157 8.73502 0.0448433 9.97502L1.37484 17.945C1.67484 19.735 3.33484 21.135 5.15484 21.135ZM9.29484 1.97502C9.68484 1.66502 10.2148 1.50502 10.7448 1.50502C11.2748 1.50502 11.8148 1.66502 12.2148 1.98502L19.1448 7.52502C19.6948 7.96502 20.0948 9.02502 19.9848 9.72502L18.6548 17.685C18.4748 18.745 17.4248 19.635 16.3548 19.635H5.15484C4.08484 19.635 3.03484 18.745 2.85484 17.695L1.52484 9.73502C1.40484 9.02502 1.80484 7.98502 2.36484 7.53502L9.29484 1.97502Z" fill="black"/>
</svg>