<?xml version="1.0" encoding="utf-8"?>
<svg xmlns="http://www.w3.org/2000/svg" width="34" height="36" viewBox="0 0 34 36" fill="none">
<g id="vuesax/outline/briefcase">
<g id="briefcase">
<path id="Union" fill-rule="evenodd" clip-rule="evenodd" d="M9.47811 7.23317V7.32819H9.08264C5.66264 7.32819 3.30347 8.08818 1.87847 9.67152C0.231802 11.5082 0.279302 13.9624 0.453469 15.6249L1.64097 28.3074C1.9893 31.6165 3.35097 35.0207 10.666 35.0207H23.3326C30.6476 35.0207 32.0093 31.6165 32.3576 28.2915L33.4564 16.5864C33.4625 16.5447 33.4665 16.5026 33.4682 16.4604L33.5451 15.6407C33.7193 13.9624 33.7668 11.5082 32.1201 9.67152C30.711 8.10402 28.3518 7.32819 24.916 7.32819H24.5198V7.23317C24.5198 4.4465 24.5198 0.979004 18.2656 0.979004H15.7323C9.47811 0.979004 9.47811 4.4465 9.47811 7.23317ZM22.1448 7.23317V7.32819H11.8531V7.23317C11.8531 4.41484 11.8531 3.354 15.7323 3.354H18.2656C22.1448 3.354 22.1448 4.41484 22.1448 7.23317ZM31.186 15.4032L31.1528 15.756C28.2369 17.7827 24.8758 19.1724 21.3531 19.8078V19.5832C21.3531 17.3507 20.8148 16.8123 18.5823 16.8123H15.4156C13.1831 16.8123 12.6448 17.3507 12.6448 19.5832V19.8559C9.17202 19.2612 5.81975 17.912 2.86125 15.9065L2.81264 15.3874C2.6068 13.424 2.86014 12.1099 3.63597 11.2549C4.57014 10.2099 6.4068 9.68735 9.08264 9.68735H24.916C27.5918 9.68735 29.4285 10.2099 30.3626 11.2549C31.1385 12.1099 31.3918 13.424 31.186 15.4032ZM3.13999 18.8835L4.00014 28.0699C4.2693 30.5715 4.95014 32.6457 10.666 32.6457H23.3326C29.0326 32.6457 29.7293 30.5715 29.9985 28.054L30.8703 18.7662C27.9481 20.4976 24.704 21.6786 21.3195 22.2378C21.1831 23.7774 20.4928 25.5207 16.9989 25.5207C13.504 25.5207 12.8143 23.7865 12.6782 22.2669C9.34058 21.7569 6.0905 20.6023 3.13999 18.8835ZM15.0198 19.1873H18.9781V21.1982C18.9781 22.8923 18.9781 23.1457 16.9989 23.1457C15.0198 23.1457 15.0198 22.8448 15.0198 21.214V19.1873Z" fill="black" fill-opacity="0.66"/>
</g>
</g>
</svg>