<svg width="24" height="24" viewBox="0 0 24 24" fill="none" xmlns="http://www.w3.org/2000/svg">
<path fill-rule="evenodd" clip-rule="evenodd" d="M11.6702 17.7501C11.4888 17.8825 11.3242 17.9908 11.1682 18.081C11.0618 19.2209 10.5697 20.2716 9.76011 21.09C8.99011 21.85 8.00011 22.32 6.88011 22.46L4.41011 22.73C4.30015 22.74 4.19007 22.75 4.08011 22.75C3.33011 22.75 2.61011 22.45 2.07011 21.91C1.45011 21.29 1.15011 20.43 1.25011 19.55L1.52011 17.09C1.76273 14.8131 3.52053 13.0848 5.76965 12.8233C5.89085 12.5978 6.03321 12.3912 6.19015 12.2101L7.73015 10.2701C10.3802 6.96011 15.7502 2.9801 19.6802 1.4001C20.5102 1.0801 21.4002 1.2701 22.0102 1.8701C22.6402 2.5001 22.8302 3.4001 22.5002 4.2201C20.9202 8.1601 16.9502 13.5201 13.6402 16.1701L11.6702 17.7501ZM12.7102 15.0101L11.0258 16.3655C10.8143 15.5661 10.3939 14.8438 9.77011 14.22C9.14086 13.5907 8.38794 13.1502 7.54812 12.9299L8.89015 11.2201C9.08281 10.98 9.29049 10.7363 9.51144 10.4902C11.66 10.4909 13.4232 12.205 13.4882 14.3478C13.2257 14.5842 12.9658 14.8057 12.7102 15.0101ZM14.798 13.0681C14.2878 11.1441 12.7537 9.63082 10.8178 9.15055C13.5216 6.57348 17.2945 3.98979 20.2202 2.8101C20.6202 2.6601 20.8802 2.8801 20.9502 2.9501C21.0502 3.0401 21.2602 3.30011 21.1102 3.6701C19.9411 6.60444 17.3686 10.3698 14.798 13.0681ZM3.01011 17.26C3.20682 15.3913 4.75781 14.3641 6.24547 14.3023C6.27013 14.3028 6.29505 14.302 6.32015 14.3001L6.32192 14.3H6.61899C6.67422 14.3027 6.72563 14.3064 6.77015 14.3101C7.49015 14.4001 8.16015 14.7401 8.70015 15.2801C9.24015 15.8201 9.56015 16.4401 9.65015 17.1501C9.66929 17.3032 9.67927 17.4563 9.6801 17.6006L9.68011 17.61C9.68011 18.53 9.32011 19.39 8.68011 20.03C8.16011 20.55 7.47011 20.87 6.70011 20.97L4.24011 21.24C3.83011 21.29 3.42011 21.14 3.13011 20.85C2.84011 20.55 2.69011 20.14 2.74011 19.72L3.01011 17.26Z" fill="white"/>
</svg>
