<?xml version="1.0" encoding="utf-8"?>
<svg xmlns="http://www.w3.org/2000/svg" width="22" height="22" viewBox="0 0 22 22" fill="none">
<g id="vuesax/outline/buliding">
<g id="buliding">
<g id="Union">
<path d="M9 16.25H6C5.59 16.25 5.25 15.91 5.25 15.5C5.25 15.09 5.59 14.75 6 14.75H9C9.41 14.75 9.75 15.09 9.75 15.5C9.75 15.91 9.41 16.25 9 16.25Z" fill="black" fill-opacity="0.56"/>
<path d="M13 16.25H16C16.41 16.25 16.75 15.91 16.75 15.5C16.75 15.09 16.41 14.75 16 14.75H13C12.59 14.75 12.25 15.09 12.25 15.5C12.25 15.91 12.59 16.25 13 16.25Z" fill="black" fill-opacity="0.56"/>
<path d="M9 11.75H6C5.59 11.75 5.25 11.41 5.25 11C5.25 10.59 5.59 10.25 6 10.25H9C9.41 10.25 9.75 10.59 9.75 11C9.75 11.41 9.41 11.75 9 11.75Z" fill="black" fill-opacity="0.56"/>
<path d="M13 11.75H16C16.41 11.75 16.75 11.41 16.75 11C16.75 10.59 16.41 10.25 16 10.25H13C12.59 10.25 12.25 10.59 12.25 11C12.25 11.41 12.59 11.75 13 11.75Z" fill="black" fill-opacity="0.56"/>
<path d="M9 7.25H6C5.59 7.25 5.25 6.91 5.25 6.5C5.25 6.09 5.59 5.75 6 5.75H9C9.41 5.75 9.75 6.09 9.75 6.5C9.75 6.91 9.41 7.25 9 7.25Z" fill="black" fill-opacity="0.56"/>
<path d="M13 7.25H16C16.41 7.25 16.75 6.91 16.75 6.5C16.75 6.09 16.41 5.75 16 5.75H13C12.59 5.75 12.25 6.09 12.25 6.5C12.25 6.91 12.59 7.25 13 7.25Z" fill="black" fill-opacity="0.56"/>
<path fill-rule="evenodd" clip-rule="evenodd" d="M1 21.75C0.59 21.75 0.25 21.41 0.25 21C0.25 20.59 0.59 20.25 1 20.25H1.25V5C1.25 1.98 2.98 0.25 6 0.25H16C19.02 0.25 20.75 1.98 20.75 5V20.25H21C21.41 20.25 21.75 20.59 21.75 21C21.75 21.41 21.41 21.75 21 21.75H1ZM19.25 20.25V5C19.25 2.78 18.22 1.75 16 1.75H6C3.78 1.75 2.75 2.78 2.75 5V20.25H19.25Z" fill="black" fill-opacity="0.56"/>
</g>
</g>
</g>
</svg>