<?xml version="1.0" encoding="utf-8"?>
<svg xmlns="http://www.w3.org/2000/svg" width="24" height="25" viewBox="0 0 24 25" fill="none">
<path d="M8.25 14.7501C8.12 14.7501 7.99 14.7201 7.87 14.6701C7.74 14.6201 7.64 14.5501 7.54 14.4601C7.36 14.2701 7.25 14.0201 7.25 13.7501C7.25 13.6201 7.28 13.4901 7.33 13.3701C7.38 13.2501 7.45 13.1401 7.54 13.0401C7.64 12.9501 7.74 12.8801 7.87 12.8301C8.23 12.6801 8.68 12.7601 8.96 13.0401C9.14 13.2301 9.25 13.4901 9.25 13.7501C9.25 13.8101 9.24 13.8801 9.23 13.9501C9.22 14.0101 9.2 14.0701 9.17 14.1301C9.15 14.1901 9.12 14.2501 9.08 14.3101C9.06 14.3434 9.03112 14.3767 9.00223 14.41C8.98779 14.4267 8.97334 14.4434 8.96 14.4601C8.77 14.6401 8.51 14.7501 8.25 14.7501Z" fill="black" fill-opacity="0.56"/>
<path d="M11.37 14.6699C11.49 14.7199 11.62 14.7499 11.75 14.7499C12.01 14.7499 12.27 14.6399 12.46 14.4599C12.4733 14.4432 12.4878 14.4265 12.5022 14.4099C12.5311 14.3765 12.56 14.3432 12.58 14.3099C12.62 14.2499 12.65 14.1899 12.67 14.1299C12.7 14.0699 12.72 14.0099 12.73 13.9499C12.74 13.8799 12.75 13.8099 12.75 13.7499C12.75 13.4899 12.64 13.2299 12.46 13.0399C12.18 12.7599 11.73 12.6699 11.37 12.8299C11.24 12.8799 11.14 12.9499 11.04 13.0399C10.95 13.1399 10.88 13.2499 10.83 13.3699C10.78 13.4899 10.75 13.6199 10.75 13.7499C10.75 14.0199 10.86 14.2699 11.04 14.4599C11.14 14.5499 11.24 14.6199 11.37 14.6699Z" fill="black" fill-opacity="0.56"/>
<path d="M15.25 14.7499C15.12 14.7499 14.99 14.7199 14.87 14.6699C14.74 14.6199 14.64 14.5499 14.54 14.4599L14.42 14.3099C14.38 14.2499 14.35 14.1899 14.33 14.1299C14.3 14.0699 14.28 14.0099 14.27 13.9499C14.26 13.8799 14.25 13.8099 14.25 13.7499C14.25 13.4899 14.36 13.2299 14.54 13.0399C14.64 12.9499 14.74 12.8799 14.87 12.8299C15.24 12.6699 15.68 12.7599 15.96 13.0399C16.14 13.2299 16.25 13.4899 16.25 13.7499C16.25 13.8099 16.24 13.8799 16.23 13.9499C16.22 14.0099 16.2 14.0699 16.17 14.1299C16.15 14.1899 16.12 14.2499 16.08 14.3099C16.06 14.3432 16.0311 14.3765 16.0023 14.4098C15.9878 14.4265 15.9733 14.4432 15.96 14.4599C15.77 14.6399 15.51 14.7499 15.25 14.7499Z" fill="black" fill-opacity="0.56"/>
<path d="M7.87 18.17C7.99 18.22 8.12 18.2499 8.25 18.2499C8.51 18.2499 8.77 18.1399 8.96 17.9599C9.14 17.7699 9.25 17.5099 9.25 17.2499C9.25 16.9899 9.14 16.73 8.96 16.54C8.59 16.17 7.91 16.17 7.54 16.54C7.45 16.63 7.38 16.7399 7.33 16.8699C7.28 16.9899 7.25 17.1199 7.25 17.2499C7.25 17.5099 7.36 17.7699 7.54 17.9599C7.64 18.0499 7.75 18.12 7.87 18.17Z" fill="black" fill-opacity="0.56"/>
<path d="M11.75 18.2499C11.49 18.2499 11.23 18.1399 11.04 17.9599C10.86 17.7699 10.75 17.5099 10.75 17.2499C10.75 17.1199 10.78 16.9899 10.83 16.8699C10.88 16.7399 10.95 16.63 11.04 16.54C11.41 16.17 12.09 16.17 12.46 16.54C12.55 16.63 12.62 16.7399 12.67 16.8699C12.72 16.9899 12.75 17.1199 12.75 17.2499C12.75 17.5099 12.64 17.7699 12.46 17.9599C12.27 18.1399 12.01 18.2499 11.75 18.2499Z" fill="black" fill-opacity="0.56"/>
<path d="M14.54 17.9599C14.73 18.1399 14.99 18.2499 15.25 18.2499C15.51 18.2499 15.77 18.1399 15.96 17.9599C16.14 17.7699 16.25 17.5099 16.25 17.2499C16.25 16.9899 16.14 16.7299 15.96 16.5399C15.9433 16.5266 15.9267 16.5121 15.91 16.4977C15.8767 16.4688 15.8433 16.4399 15.81 16.4199C15.75 16.3799 15.69 16.3499 15.63 16.3299C15.57 16.2999 15.51 16.2799 15.44 16.2699C15.12 16.1999 14.77 16.3099 14.54 16.5399C14.45 16.6299 14.38 16.7399 14.33 16.8699C14.28 16.9899 14.25 17.1199 14.25 17.2499C14.25 17.3799 14.28 17.5099 14.33 17.6299C14.38 17.7599 14.45 17.8699 14.54 17.9599Z" fill="black" fill-opacity="0.56"/>
<path fill-rule="evenodd" clip-rule="evenodd" d="M8.5 3V2.25C8.5 1.84 8.16 1.5 7.75 1.5C7.34 1.5 7 1.84 7 2.25V3.03123C3.81383 3.30438 2 5.3578 2 8.75V17.25C2 20.9 4.1 23 7.75 23H15.75C19.4 23 21.5 20.9 21.5 17.25V8.75C21.5 5.3578 19.6862 3.30438 16.5 3.03123V2.25C16.5 1.84 16.16 1.5 15.75 1.5C15.34 1.5 15 1.84 15 2.25V3H8.5ZM7 5.25C7 5.66 7.34 6 7.75 6C8.16 6 8.5 5.66 8.5 5.25V4.5H15V5.25C15 5.66 15.34 6 15.75 6C16.16 6 16.5 5.66 16.5 5.25V4.53515C18.8045 4.76256 19.9519 6.09536 19.9985 8.58984H3.50148C3.54811 6.09536 4.69552 4.76256 7 4.53515V5.25ZM3.5 10.0898V17.25C3.5 20.11 4.89 21.5 7.75 21.5H15.75C18.61 21.5 20 20.11 20 17.25V10.0898H3.5Z" fill="black" fill-opacity="0.56"/>
</svg>