<?xml version="1.0" encoding="utf-8"?>
<svg xmlns="http://www.w3.org/2000/svg" width="24" height="25" viewBox="0 0 24 25" fill="none">
<g id="CheckBoxOutlineBlankOutlined">
<path id="Vector" fill-rule="evenodd" clip-rule="evenodd" d="M8.625 3.28467C5.5184 3.28467 3 5.80307 3 8.90967V15.6597C3 18.7663 5.5184 21.2847 8.625 21.2847H15.375C18.4816 21.2847 21 18.7663 21 15.6597V8.90967C21 5.80307 18.4816 3.28467 15.375 3.28467H8.625ZM8.625 5.53467C6.76104 5.53467 5.25 7.04571 5.25 8.90967V15.6597C5.25 17.5236 6.76104 19.0347 8.625 19.0347H15.375C17.239 19.0347 18.75 17.5236 18.75 15.6597V8.90967C18.75 7.04571 17.239 5.53467 15.375 5.53467H8.625Z" fill="black" fill-opacity="0.6"/>
</g>
</svg>