<svg width="24" height="24" viewBox="0 0 24 24" fill="none" xmlns="http://www.w3.org/2000/svg">
<path fill-rule="evenodd" clip-rule="evenodd" d="M11.9998 22.75C10.8298 22.75 9.73977 22.3 8.91977 21.48L2.52975 15.09C1.70975 14.27 1.25977 13.17 1.25977 12.01C1.25977 10.85 1.70975 9.74999 2.52975 8.92999L5.62851 5.83124C5.65486 5.79186 5.68533 5.75455 5.71994 5.71994C5.75455 5.68533 5.79187 5.65485 5.83124 5.6285L8.91977 2.53998C9.73977 1.71998 10.8398 1.27002 11.9998 1.27002C13.1598 1.27002 14.2597 1.71998 15.0797 2.53998L18.1675 5.62776C18.2073 5.65428 18.245 5.68501 18.2799 5.71994C18.3149 5.75488 18.3456 5.79257 18.3721 5.83235L21.4698 8.92999C22.2898 9.74999 22.7397 10.85 22.7397 12.01C22.7397 13.17 22.2898 14.27 21.4698 15.09L18.2897 18.2701L18.2799 18.28L18.2697 18.2901L15.0797 21.48C14.2597 22.3 13.1698 22.75 11.9998 22.75ZM16.6898 6.25007L14.0197 3.58002C13.4897 3.05002 12.7698 2.75 11.9998 2.75C11.2298 2.75 10.5098 3.05002 9.97977 3.58002L7.30988 6.24988L11.9999 10.9399L16.6898 6.25007ZM13.06 12L17.7499 7.31009L20.4098 9.96997C20.9398 10.5 21.2397 11.22 21.2397 11.99C21.2397 12.76 20.9498 13.47 20.4098 14.01L17.7399 16.6799L13.06 12ZM11.9999 13.06L16.6799 17.7399L14.0197 20.4C12.9497 21.47 11.0498 21.47 9.97977 20.4L7.31984 17.7401L11.9999 13.06ZM10.9399 12L6.25981 16.6801L3.58975 14.01C3.05975 13.48 2.75977 12.75 2.75977 11.99C2.75977 11.23 3.04975 10.51 3.58975 9.96997L6.24985 7.3099L10.9399 12Z" fill="white"/>
</svg>
