<svg width="24" height="24" viewBox="0 0 24 24" fill="none" xmlns="http://www.w3.org/2000/svg">
<path d="M5.75 4.75H6.25V4.25V2C6.25 1.86614 6.36614 1.75 6.5 1.75C6.63386 1.75 6.75 1.86614 6.75 2V4.25V4.75H7.25H7.5C8.25999 4.75 8.80849 4.9756 9.16645 5.33355C9.5244 5.69151 9.75 6.24001 9.75 7V13C9.75 13.76 9.5244 14.3085 9.16645 14.6664C8.80849 15.0244 8.25999 15.25 7.5 15.25H7.25H6.75V15.75V22C6.75 22.1339 6.63386 22.25 6.5 22.25C6.36614 22.25 6.25 22.1339 6.25 22V15.75V15.25H5.75H5.5C4.74001 15.25 4.19151 15.0244 3.83355 14.6664C3.4756 14.3085 3.25 13.76 3.25 13V7C3.25 6.24001 3.4756 5.69151 3.83355 5.33355C4.19151 4.9756 4.74001 4.75 5.5 4.75H5.75ZM17.25 19.75V19.25H16.75H16.5C15.74 19.25 15.1915 19.0244 14.8336 18.6664C14.4756 18.3085 14.25 17.76 14.25 17V11C14.25 10.24 14.4756 9.69151 14.8336 9.33355C15.1915 8.9756 15.74 8.75 16.5 8.75H16.75H17.25V8.25V2C17.25 1.86614 17.3661 1.75 17.5 1.75C17.6339 1.75 17.75 1.86614 17.75 2V8.25V8.75H18.25H18.5C19.26 8.75 19.8085 8.9756 20.1664 9.33355C20.5244 9.69151 20.75 10.24 20.75 11V17C20.75 17.76 20.5244 18.3085 20.1664 18.6664C19.8085 19.0244 19.26 19.25 18.5 19.25H18.25H17.75V19.75V22C17.75 22.1339 17.6339 22.25 17.5 22.25C17.3661 22.25 17.25 22.1339 17.25 22V19.75ZM7.5 5.25H5.5C5.00432 5.25 4.52801 5.34738 4.1877 5.6877C3.84738 6.02801 3.75 6.50432 3.75 7V13C3.75 13.4957 3.84738 13.972 4.1877 14.3123C4.52801 14.6526 5.00432 14.75 5.5 14.75H7.5C7.99568 14.75 8.47199 14.6526 8.8123 14.3123C9.15262 13.972 9.25 13.4957 9.25 13V7C9.25 6.50432 9.15262 6.02801 8.8123 5.6877C8.47199 5.34738 7.99568 5.25 7.5 5.25ZM16.5 9.25C16.0043 9.25 15.528 9.34738 15.1877 9.6877C14.8474 10.028 14.75 10.5043 14.75 11V17C14.75 17.4957 14.8474 17.972 15.1877 18.3123C15.528 18.6526 16.0043 18.75 16.5 18.75H18.5C18.9957 18.75 19.472 18.6526 19.8123 18.3123C20.1526 17.972 20.25 17.4957 20.25 17V11C20.25 10.5043 20.1526 10.028 19.8123 9.6877C19.472 9.34738 18.9957 9.25 18.5 9.25H16.5Z" stroke="white"/>
</svg>
