<svg width="22" height="22" viewBox="0 0 22 22" fill="none" xmlns="http://www.w3.org/2000/svg">
<path fill-rule="evenodd" clip-rule="evenodd" d="M16.1033 3.5C16.4294 4.65488 17.4901 5.5 18.75 5.5C20.27 5.5 21.5 4.27 21.5 2.75C21.5 1.23 20.27 0 18.75 0C17.4901 0 16.4294 0.845121 16.1033 2H12.75C10.33 2 9 3.33 9 5.75V10H5.39669C5.07063 8.84512 4.00994 8 2.75 8C1.23 8 0 9.23 0 10.75C0 12.27 1.23 13.5 2.75 13.5C4.00994 13.5 5.07063 12.6549 5.39669 11.5H9V15.75C9 18.17 10.33 19.5 12.75 19.5H16.1033C16.4294 20.6549 17.4901 21.5 18.75 21.5C20.27 21.5 21.5 20.27 21.5 18.75C21.5 17.23 20.27 16 18.75 16C17.4901 16 16.4294 16.8451 16.1033 18H12.75C11.17 18 10.5 17.33 10.5 15.75V11.5H16.1033C16.4294 12.6549 17.4901 13.5 18.75 13.5C20.27 13.5 21.5 12.27 21.5 10.75C21.5 9.23 20.27 8 18.75 8C17.4901 8 16.4294 8.84512 16.1033 10H10.5V5.75C10.5 4.17 11.17 3.5 12.75 3.5H16.1033ZM17.5 18.75C17.5 19.44 18.06 20 18.75 20C19.44 20 20 19.44 20 18.75C20 18.06 19.44 17.5 18.75 17.5C18.06 17.5 17.5 18.06 17.5 18.75ZM17.5 2.75C17.5 2.06 18.06 1.5 18.75 1.5C19.44 1.5 20 2.06 20 2.75C20 3.44 19.44 4 18.75 4C18.06 4 17.5 3.44 17.5 2.75ZM2.75 9.5C3.44 9.5 4 10.06 4 10.75C4 11.44 3.44 12 2.75 12C2.06 12 1.5 11.44 1.5 10.75C1.5 10.06 2.06 9.5 2.75 9.5ZM17.5 10.75C17.5 10.06 18.06 9.5 18.75 9.5C19.44 9.5 20 10.06 20 10.75C20 11.44 19.44 12 18.75 12C18.06 12 17.5 11.44 17.5 10.75Z" fill="white"/>
</svg>
