<?xml version="1.0" encoding="utf-8"?>
<svg xmlns="http://www.w3.org/2000/svg" width="20" height="22" viewBox="0 0 20 22" fill="none">
<g id="vuesax/outline/document-text">
<g id="document-text">
<g id="Union">
<path d="M14.5 8.25H16.5C16.91 8.25 17.25 7.91 17.25 7.5C17.25 7.09 16.91 6.75 16.5 6.75H14.5C13.81 6.75 13.25 6.19 13.25 5.5V3.5C13.25 3.09 12.91 2.75 12.5 2.75C12.09 2.75 11.75 3.09 11.75 3.5V5.5C11.75 7.02 12.98 8.25 14.5 8.25Z" fill="black" fill-opacity="0.56"/>
<path d="M10 12.75H6C5.59 12.75 5.25 12.41 5.25 12C5.25 11.59 5.59 11.25 6 11.25H10C10.41 11.25 10.75 11.59 10.75 12C10.75 12.41 10.41 12.75 10 12.75Z" fill="black" fill-opacity="0.56"/>
<path d="M5.25 16C5.25 16.41 5.59 16.75 6 16.75H14C14.41 16.75 14.75 16.41 14.75 16C14.75 15.59 14.41 15.25 14 15.25H6C5.59 15.25 5.25 15.59 5.25 16Z" fill="black" fill-opacity="0.56"/>
<path fill-rule="evenodd" clip-rule="evenodd" d="M14 21.75C17.65 21.75 19.75 19.65 19.75 16V6C19.75 2.35 17.65 0.25 14 0.25H6C2.35 0.25 0.25 2.35 0.25 6V16C0.25 19.65 2.35 21.75 6 21.75H14ZM1.75 6C1.75 3.14 3.14 1.75 6 1.75H14C16.86 1.75 18.25 3.14 18.25 6V16C18.25 18.86 16.86 20.25 14 20.25H6C3.14 20.25 1.75 18.86 1.75 16V6Z" fill="black" fill-opacity="0.56"/>
</g>
</g>
</g>
</svg>