<svg width="18" height="19" viewBox="0 0 18 19" fill="none" xmlns="http://www.w3.org/2000/svg">
<path d="M8.25 14.4395C8.25 15.2645 7.575 15.9395 6.75 15.9395C5.925 15.9395 5.25 15.2645 5.25 14.4395C5.25 13.6145 5.925 12.9395 6.75 12.9395C7.575 12.9395 8.25 13.6145 8.25 14.4395ZM6.75 8.43945C5.925 8.43945 5.25 9.11445 5.25 9.93945C5.25 10.7645 5.925 11.4395 6.75 11.4395C7.575 11.4395 8.25 10.7645 8.25 9.93945C8.25 9.11445 7.575 8.43945 6.75 8.43945ZM6.75 3.93945C5.925 3.93945 5.25 4.61445 5.25 5.43945C5.25 6.26445 5.925 6.93945 6.75 6.93945C7.575 6.93945 8.25 6.26445 8.25 5.43945C8.25 4.61445 7.575 3.93945 6.75 3.93945ZM11.25 6.93945C12.075 6.93945 12.75 6.26445 12.75 5.43945C12.75 4.61445 12.075 3.93945 11.25 3.93945C10.425 3.93945 9.75 4.61445 9.75 5.43945C9.75 6.26445 10.425 6.93945 11.25 6.93945ZM11.25 8.43945C10.425 8.43945 9.75 9.11445 9.75 9.93945C9.75 10.7645 10.425 11.4395 11.25 11.4395C12.075 11.4395 12.75 10.7645 12.75 9.93945C12.75 9.11445 12.075 8.43945 11.25 8.43945ZM11.25 12.9395C10.425 12.9395 9.75 13.6145 9.75 14.4395C9.75 15.2645 10.425 15.9395 11.25 15.9395C12.075 15.9395 12.75 15.2645 12.75 14.4395C12.75 13.6145 12.075 12.9395 11.25 12.9395Z" fill="black" fill-opacity="0.54"/>
</svg>
