<svg width="29" height="29" viewBox="0 0 29 29" fill="none" xmlns="http://www.w3.org/2000/svg">
<g id="vuesax/outline/export">
<g id="export">
<g id="Union">
<path d="M18.2598 7.00691C18.4598 7.20691 18.7131 7.30025 18.9665 7.30025C19.2198 7.30025 19.4865 7.20691 19.6731 7.00691C20.0598 6.62025 20.0598 5.98025 19.6731 5.59358L15.2065 1.12691C14.8198 0.740247 14.1798 0.740247 13.7931 1.12691L9.32646 5.59358C8.93979 5.98025 8.93979 6.62025 9.32646 7.00691C9.71312 7.39358 10.3531 7.39358 10.7398 7.00691L13.5 4.24671V18.5002C13.5 19.0468 13.9533 19.5002 14.5 19.5002C15.0467 19.5002 15.5 19.0468 15.5 18.5002V4.24712L18.2598 7.00691Z" fill="#1E417A"/>
<path d="M18.8466 28.167H10.1533C3.60664 28.167 0.806641 25.367 0.806641 18.8204V18.647C0.806641 12.727 3.13997 9.87369 8.36664 9.38036C8.89997 9.34036 9.40664 9.74036 9.45997 10.287C9.51331 10.8337 9.11331 11.327 8.55331 11.3804C4.36664 11.767 2.80664 13.7404 2.80664 18.6604V18.8337C2.80664 24.2604 4.72664 26.1804 10.1533 26.1804H18.8466C24.2733 26.1804 26.1933 24.2604 26.1933 18.8337V18.6604C26.1933 13.7137 24.6066 11.7404 20.34 11.3804C19.7933 11.327 19.38 10.847 19.4333 10.3004C19.4866 9.75369 19.9533 9.34036 20.5133 9.39369C25.82 9.84703 28.1933 12.7137 28.1933 18.6737V18.847C28.1933 25.367 25.3933 28.167 18.8466 28.167Z" fill="#1E417A"/>
</g>
</g>
</g>
</svg>
