<svg width="16" height="22" viewBox="0 0 16 22" fill="none" xmlns="http://www.w3.org/2000/svg">
<path fill-rule="evenodd" clip-rule="evenodd" d="M0.400146 21C0.400146 21.41 0.740146 21.75 1.15015 21.75C1.56015 21.75 1.90015 21.41 1.90015 21V15.75H12.3501C14.5001 15.75 15.2101 14.83 15.4401 14.3C15.6601 13.75 15.8101 12.61 14.2801 11.08L13.0401 9.85C12.8301 9.66 12.7101 9.39 12.7001 9.09C12.6901 8.74 12.8301 8.39 13.0801 8.14L14.2801 6.94C15.8401 5.38 15.6901 4.24 15.4701 3.7C15.2401 3.16 14.5401 2.25 12.3501 2.25H1.90015V1C1.90015 0.59 1.56015 0.25 1.15015 0.25C0.740146 0.25 0.400146 0.59 0.400146 1V21ZM1.90015 14.25H12.3501C13.4401 14.25 13.9501 13.96 14.0501 13.71C14.1501 13.46 14.0001 12.9 13.2201 12.13L12.0201 10.93C11.5301 10.5 11.2301 9.85 11.2001 9.13C11.1701 8.37 11.4701 7.62 12.0201 7.07L13.2201 5.87C13.9601 5.13 14.1901 4.53 14.0801 4.27C13.9701 4.01 13.4001 3.75 12.3501 3.75H1.90015V14.25Z" fill="white"/>
</svg>
