<?xml version="1.0" encoding="utf-8"?>
<svg xmlns="http://www.w3.org/2000/svg" width="21" height="21" viewBox="0 0 21 21" fill="none">
<path d="M8.87496 13.1202C8.99163 13.2368 9.14996 13.3035 9.31663 13.3035C9.48329 13.3035 9.64163 13.2368 9.7583 13.1202L14.4833 8.39516C14.725 8.15349 14.725 7.75349 14.4833 7.51182C14.2416 7.27016 13.8416 7.27016 13.6 7.51182L9.31663 11.7952L7.39996 9.87849C7.1583 9.63682 6.7583 9.63682 6.51663 9.87849C6.27496 10.1202 6.27496 10.5202 6.51663 10.7618L8.87496 13.1202Z" fill="#2E7D32"/>
<path fill-rule="evenodd" clip-rule="evenodd" d="M1.54163 10.3202C1.54163 15.2618 5.55829 19.2785 10.5 19.2785C15.4416 19.2785 19.4583 15.2618 19.4583 10.3202C19.4583 5.37848 15.4416 1.36182 10.5 1.36182C5.55829 1.36182 1.54163 5.37848 1.54163 10.3202ZM2.79163 10.3202C2.79163 6.07015 6.24996 2.61182 10.5 2.61182C14.75 2.61182 18.2083 6.07015 18.2083 10.3202C18.2083 14.5702 14.75 18.0285 10.5 18.0285C6.24996 18.0285 2.79163 14.5702 2.79163 10.3202Z" fill="#2E7D32"/>
</svg>