<svg width="24" height="24" viewBox="0 0 24 24" fill="none" xmlns="http://www.w3.org/2000/svg">
<path fill-rule="evenodd" clip-rule="evenodd" d="M11.9989 11.6698H11.9289C10.4789 11.6298 9.41895 10.5198 9.41895 9.1698C9.41895 7.7898 10.5489 6.65979 11.9289 6.65979C13.3089 6.65979 14.4389 7.7898 14.4389 9.1698C14.4289 10.5298 13.3689 11.6298 12.0189 11.6798C12.0089 11.6698 12.0089 11.6698 11.9989 11.6698ZM11.9289 8.15979C11.3689 8.15979 10.9189 8.6098 10.9189 9.1698C10.9189 9.7198 11.3489 10.1598 11.8889 10.1798H11.9989C12.5289 10.1498 12.9389 9.7098 12.9389 9.1698C12.9489 8.6098 12.4889 8.15979 11.9289 8.15979Z" fill="white"/>
<path fill-rule="evenodd" clip-rule="evenodd" d="M9.59982 16.6696C10.2698 17.1196 11.1398 17.3496 11.9998 17.3496C12.8598 17.3496 13.7298 17.1196 14.3998 16.6696C15.0698 16.2196 15.4498 15.5696 15.4498 14.8796C15.4498 14.1896 15.0698 13.5396 14.3998 13.0996C13.0598 12.2096 10.9498 12.1996 9.59982 13.0996C8.92982 13.5496 8.5498 14.1996 8.5498 14.8896C8.5498 15.5796 8.92982 16.2296 9.59982 16.6696ZM10.0498 14.8796C10.0398 14.6996 10.1798 14.4996 10.4298 14.3396C11.2698 13.7896 12.7398 13.7896 13.5798 14.3396C13.8198 14.4996 13.9598 14.6996 13.9598 14.8796C13.9598 15.0596 13.8198 15.2596 13.5698 15.4196C12.7298 15.9796 11.2698 15.9796 10.4298 15.4196C10.1898 15.2596 10.0498 15.0596 10.0498 14.8796Z" fill="white"/>
<path fill-rule="evenodd" clip-rule="evenodd" d="M11.9994 22.7598C10.9094 22.7598 9.82943 22.4398 8.97943 21.8098L4.67941 18.5998C3.53941 17.7498 2.64941 15.9798 2.64941 14.5598V7.12983C2.64941 5.58983 3.77943 3.94982 5.22943 3.40982L10.2194 1.53983C11.2094 1.16983 12.7694 1.16983 13.7594 1.53983L18.7594 3.40982C20.2094 3.94982 21.3394 5.58983 21.3394 7.12983V14.5598C21.3394 15.9798 20.4494 17.7498 19.3094 18.5998L15.0094 21.8098C14.1694 22.4398 13.0894 22.7598 11.9994 22.7598ZM10.7494 2.93982L5.75943 4.80982C4.89943 5.12982 4.14941 6.20983 4.14941 7.12983V14.5598C4.14941 15.5098 4.81943 16.8398 5.56943 17.3998L9.86942 20.6098C11.0194 21.4698 12.9694 21.4698 14.1194 20.6098L18.4194 17.3998C19.1794 16.8298 19.8394 15.4998 19.8394 14.5598V7.12983C19.8394 6.21983 19.0894 5.13982 18.2294 4.80982L13.2394 2.93982C12.5794 2.68982 11.4194 2.68982 10.7494 2.93982Z" fill="white"/>
</svg>
