<?xml version="1.0" encoding="utf-8"?>
<svg xmlns="http://www.w3.org/2000/svg" width="18" height="18" viewBox="0 0 18 18" fill="none">
<g id="vuesax/outline/info-circle">
<g id="info-circle">
<g id="Union">
<path d="M9 7.875C9.3075 7.875 9.5625 8.13 9.5625 8.4375L9.5625 12.1875C9.5625 12.495 9.3075 12.75 9 12.75C8.6925 12.75 8.4375 12.495 8.4375 12.1875L8.4375 8.4375C8.4375 8.13 8.6925 7.875 9 7.875Z" fill="black" fill-opacity="0.66"/>
<path d="M9.285 5.4975C9.195 5.46 9.0975 5.4375 9 5.4375C8.9025 5.4375 8.805 5.46 8.715 5.4975C8.625 5.535 8.5425 5.5875 8.4675 5.655C8.4 5.73 8.3475 5.805 8.31 5.9025C8.2725 5.9925 8.25 6.09 8.25 6.1875C8.25 6.285 8.2725 6.3825 8.31 6.4725C8.3475 6.5625 8.4 6.645 8.4675 6.72C8.5425 6.7875 8.625 6.84 8.715 6.8775C8.895 6.9525 9.105 6.9525 9.285 6.8775C9.375 6.84 9.4575 6.7875 9.5325 6.72C9.6 6.645 9.6525 6.5625 9.69 6.4725C9.7275 6.3825 9.75 6.285 9.75 6.1875C9.75 6.09 9.7275 5.9925 9.69 5.9025C9.6525 5.805 9.6 5.73 9.5325 5.655C9.4575 5.5875 9.375 5.535 9.285 5.4975Z" fill="black" fill-opacity="0.66"/>
<path fill-rule="evenodd" clip-rule="evenodd" d="M9 17.0625C4.5525 17.0625 0.9375 13.4475 0.9375 9C0.9375 4.5525 4.5525 0.9375 9 0.9375C13.4475 0.9375 17.0625 4.5525 17.0625 9C17.0625 13.4475 13.4475 17.0625 9 17.0625ZM9 2.0625C5.175 2.0625 2.0625 5.175 2.0625 9C2.0625 12.825 5.175 15.9375 9 15.9375C12.825 15.9375 15.9375 12.825 15.9375 9C15.9375 5.175 12.825 2.0625 9 2.0625Z" fill="black" fill-opacity="0.66"/>
</g>
</g>
</g>
</svg>