<svg width="22" height="22" viewBox="0 0 22 22" fill="none" xmlns="http://www.w3.org/2000/svg">
<g id=".InfoOutlined">
<g id="Vector">
<path d="M10.7707 9.39583C11.1465 9.39583 11.4582 9.7075 11.4582 10.0833L11.4582 14.6667C11.4582 15.0425 11.1465 15.3542 10.7707 15.3542C10.3948 15.3542 10.0832 15.0425 10.0832 14.6667L10.0832 10.0833C10.0832 9.7075 10.3948 9.39583 10.7707 9.39583Z" fill="#1462AD"/>
<path d="M11.119 6.48999C11.009 6.44416 10.8898 6.41666 10.7707 6.41666C10.6515 6.41666 10.5323 6.44416 10.4223 6.48999C10.3123 6.53583 10.2115 6.59999 10.1198 6.6825C10.0373 6.77416 9.97317 6.86583 9.92734 6.98499C9.8815 7.09499 9.854 7.21416 9.854 7.33333C9.854 7.45249 9.8815 7.57166 9.92734 7.68166C9.97317 7.79166 10.0373 7.89249 10.1198 7.98416C10.2115 8.06666 10.3123 8.13083 10.4223 8.17666C10.6423 8.26833 10.899 8.26833 11.119 8.17666C11.229 8.13083 11.3298 8.06666 11.4215 7.98416C11.504 7.89249 11.5682 7.79166 11.614 7.68166C11.6598 7.57166 11.6873 7.45249 11.6873 7.33333C11.6873 7.21416 11.6598 7.09499 11.614 6.98499C11.5682 6.86583 11.504 6.77416 11.4215 6.6825C11.3298 6.59999 11.229 6.53583 11.119 6.48999Z" fill="#1462AD"/>
<path fill-rule="evenodd" clip-rule="evenodd" d="M10.7707 20.625C5.33484 20.625 0.916504 16.2067 0.916504 10.7708C0.916504 5.335 5.33484 0.916664 10.7707 0.916664C16.2065 0.916664 20.6248 5.335 20.6248 10.7708C20.6248 16.2067 16.2065 20.625 10.7707 20.625ZM10.7707 2.29166C6.09567 2.29166 2.2915 6.09583 2.2915 10.7708C2.2915 15.4458 6.09567 19.25 10.7707 19.25C15.4457 19.25 19.2498 15.4458 19.2498 10.7708C19.2498 6.09583 15.4457 2.29166 10.7707 2.29166Z" fill="#1462AD"/>
</g>
</g>
</svg>
