<?xml version="1.0" encoding="utf-8"?>
<svg xmlns="http://www.w3.org/2000/svg" width="107" height="30" viewBox="0 0 107 30" fill="none">
<g id="logo">
<g id="IRM">
<path id="Vector" opacity="0.75" d="M12.9719 7.59062L19.133 17.7511L25.345 27.9117H12.9719H0.547852L6.75988 17.7511L12.9719 7.59062Z" fill="#13487D"/>
<path id="Vector_2" opacity="0.75" d="M22.3918 0.21492L28.6039 14.0889L34.8159 27.9113H22.3918H9.96777L16.1798 14.0889L22.3918 0.21492Z" fill="#1C75BC"/>
<path id="Vector_3" opacity="0.75" d="M17.6563 4.18608L23.8684 16.0486L30.0804 27.9111H17.6563H5.2832L11.4952 16.0486L17.6563 4.18608Z" fill="#6DCFF6"/>
</g>
<g id="Vector_4">
<path d="M44.7944 6.12405V11.215H44.3295V6.12405H44.7944Z" fill="#062444"/>
<path d="M46.7079 11.215V6.12405H48.351C48.7123 6.12405 49.0139 6.18951 49.2558 6.32043C49.4995 6.44969 49.6826 6.6295 49.8052 6.85985C49.9295 7.08854 49.9916 7.35121 49.9916 7.64785C49.9916 7.94448 49.9295 8.20632 49.8052 8.43336C49.6826 8.66039 49.5003 8.83771 49.2583 8.96532C49.0164 9.09292 48.7164 9.15672 48.3585 9.15672H46.959V8.73165H48.346C48.6112 8.73165 48.8316 8.68774 49.0073 8.59991C49.1846 8.51207 49.3163 8.38696 49.4025 8.22455C49.4903 8.06214 49.5343 7.86991 49.5343 7.64785C49.5343 7.42578 49.4903 7.23189 49.4025 7.06617C49.3147 6.89879 49.1821 6.76953 49.0048 6.67839C48.8291 6.58724 48.6071 6.54167 48.3386 6.54167H47.1727V11.215H46.7079ZM48.9526 8.91809L50.2054 11.215H49.6685L48.4281 8.91809H48.9526Z" fill="#062444"/>
<path d="M55.8576 8.66951C55.8576 9.19981 55.7631 9.66134 55.5742 10.0541C55.3853 10.4452 55.1251 10.7485 54.7936 10.9639C54.4639 11.1777 54.0844 11.2846 53.6552 11.2846C53.2259 11.2846 52.8456 11.1777 52.5142 10.9639C52.1844 10.7485 51.925 10.4452 51.7361 10.0541C51.5489 9.66134 51.4552 9.19981 51.4552 8.66951C51.4552 8.1392 51.5489 7.6785 51.7361 7.28741C51.925 6.89465 52.1852 6.59138 52.5167 6.3776C52.8481 6.16217 53.2276 6.05445 53.6552 6.05445C54.0844 6.05445 54.4639 6.16217 54.7936 6.3776C55.1251 6.59138 55.3853 6.89465 55.5742 7.28741C55.7631 7.6785 55.8576 8.1392 55.8576 8.66951ZM55.4052 8.66951C55.4052 8.21378 55.3289 7.82351 55.1765 7.4987C55.024 7.17223 54.816 6.92282 54.5525 6.75047C54.289 6.57813 53.9899 6.49195 53.6552 6.49195C53.3221 6.49195 53.0238 6.57813 52.7603 6.75047C52.4968 6.92282 52.288 7.1714 52.1338 7.49621C51.9814 7.82102 51.9052 8.21212 51.9052 8.66951C51.9052 9.12524 51.9814 9.51551 52.1338 9.84032C52.2863 10.1651 52.4943 10.4145 52.7578 10.5885C53.0213 10.7609 53.3204 10.8471 53.6552 10.8471C53.9899 10.8471 54.289 10.7609 54.5525 10.5885C54.8177 10.4162 55.0265 10.1676 55.1789 9.8428C55.3314 9.51634 55.4068 9.12524 55.4052 8.66951Z" fill="#062444"/>
<path d="M61.5066 6.12405V11.215H61.0542L58.0464 6.95182H58.0066V11.215H57.5418V6.12405H57.9917L61.0095 10.3922H61.0492V6.12405H61.5066Z" fill="#062444"/>
<path d="M65.9489 6.12405H66.4858L68.3328 10.5587H68.3775L70.2244 6.12405H70.7614V11.215H70.3239V7.10594H70.2841L68.5664 11.215H68.1438L66.4262 7.10594H66.3864V11.215H65.9489V6.12405Z" fill="#062444"/>
<path d="M76.8485 8.66951C76.8485 9.19981 76.7541 9.66134 76.5652 10.0541C76.3762 10.4452 76.1161 10.7485 75.7846 10.9639C75.4548 11.1777 75.0753 11.2846 74.6461 11.2846C74.2169 11.2846 73.8366 11.1777 73.5052 10.9639C73.1754 10.7485 72.916 10.4452 72.7271 10.0541C72.5398 9.66134 72.4462 9.19981 72.4462 8.66951C72.4462 8.1392 72.5398 7.6785 72.7271 7.28741C72.916 6.89465 73.1762 6.59138 73.5076 6.3776C73.8391 6.16217 74.2186 6.05445 74.6461 6.05445C75.0753 6.05445 75.4548 6.16217 75.7846 6.3776C76.1161 6.59138 76.3762 6.89465 76.5652 7.28741C76.7541 7.6785 76.8485 8.1392 76.8485 8.66951ZM76.3961 8.66951C76.3961 8.21378 76.3199 7.82351 76.1674 7.4987C76.015 7.17223 75.807 6.92282 75.5435 6.75047C75.28 6.57813 74.9809 6.49195 74.6461 6.49195C74.313 6.49195 74.0147 6.57813 73.7512 6.75047C73.4878 6.92282 73.2789 7.1714 73.1248 7.49621C72.9724 7.82102 72.8961 8.21212 72.8961 8.66951C72.8961 9.12524 72.9724 9.51551 73.1248 9.84032C73.2773 10.1651 73.4853 10.4145 73.7488 10.5885C74.0123 10.7609 74.3114 10.8471 74.6461 10.8471C74.9809 10.8471 75.28 10.7609 75.5435 10.5885C75.8087 10.4162 76.0175 10.1676 76.1699 9.8428C76.3224 9.51634 76.3978 9.12524 76.3961 8.66951Z" fill="#062444"/>
<path d="M81.9259 6.12405H82.3907V9.49479C82.3907 9.84115 82.3095 10.151 82.1471 10.4245C81.9847 10.6963 81.7585 10.9109 81.4685 11.0683C81.1801 11.2241 80.8445 11.302 80.4617 11.302C80.0806 11.302 79.745 11.2232 79.455 11.0658C79.165 10.9084 78.9388 10.6938 78.7764 10.422C78.6139 10.1502 78.5327 9.84115 78.5327 9.49479V6.12405H78.9976V9.46248C78.9976 9.7326 79.0581 9.97372 79.1791 10.1858C79.3 10.3963 79.4699 10.562 79.6886 10.683C79.909 10.804 80.1667 10.8645 80.4617 10.8645C80.7567 10.8645 81.0144 10.804 81.2348 10.683C81.4552 10.562 81.6251 10.3963 81.7444 10.1858C81.8654 9.97372 81.9259 9.7326 81.9259 9.46248V6.12405Z" fill="#062444"/>
<path d="M88.2666 6.12405V11.215H87.8142L84.8063 6.95182H84.7666V11.215H84.3017V6.12405H84.7517L87.7694 10.3922H87.8092V6.12405H88.2666Z" fill="#062444"/>
<path d="M89.8719 6.54167V6.12405H93.5633V6.54167H91.95V11.215H91.4851V6.54167H89.8719Z" fill="#062444"/>
<path d="M94.5825 11.215H94.0953L95.9472 6.12405H96.4444L98.2963 11.215H97.8091L96.2132 6.7281H96.1784L94.5825 11.215ZM94.933 9.26361H97.4586V9.68123H94.933V9.26361Z" fill="#062444"/>
<path d="M100.194 6.12405V11.215H99.7288V6.12405H100.194Z" fill="#062444"/>
<path d="M106.072 6.12405V11.215H105.62L102.612 6.95182H102.572V11.215H102.107V6.12405H102.557L105.575 10.3922H105.615V6.12405H106.072Z" fill="#062444"/>
<path d="M45.4716 14.5786V26.215H44.0625V14.5786H45.4716Z" fill="#1E417A"/>
<path d="M50.736 20.965V26.215H49.3951V17.4877H50.6905V18.8513H50.8041C51.0087 18.4081 51.3193 18.0521 51.736 17.7831C52.1526 17.5104 52.6905 17.3741 53.3496 17.3741C53.9405 17.3741 54.4576 17.4953 54.9007 17.7377C55.3439 17.9763 55.6886 18.34 55.9348 18.8286C56.181 19.3134 56.3041 19.9271 56.3041 20.6695V26.215H54.9632V20.7604C54.9632 20.0748 54.7852 19.5407 54.4291 19.1581C54.0731 18.7718 53.5845 18.5786 52.9632 18.5786C52.5352 18.5786 52.1526 18.6714 51.8155 18.857C51.4822 19.0426 51.2189 19.3134 51.0257 19.6695C50.8326 20.0256 50.736 20.4574 50.736 20.965Z" fill="#1E417A"/>
<path d="M66.5799 17.4877C66.5117 16.9119 66.2352 16.465 65.7503 16.1468C65.2655 15.8286 64.6708 15.6695 63.9662 15.6695C63.4511 15.6695 63.0003 15.7528 62.614 15.9195C62.2314 16.0862 61.9322 16.3153 61.7162 16.607C61.5041 16.8987 61.3981 17.2301 61.3981 17.6013C61.3981 17.9119 61.4719 18.179 61.6197 18.4025C61.7712 18.6222 61.9644 18.8059 62.1992 18.9536C62.4341 19.0975 62.6803 19.2169 62.9378 19.3116C63.1954 19.4025 63.4322 19.4763 63.6481 19.5331L64.8299 19.8513C65.1329 19.9309 65.47 20.0407 65.8412 20.1809C66.2162 20.321 66.5742 20.5123 66.9151 20.7547C67.2598 20.9934 67.5439 21.3002 67.7674 21.6752C67.9909 22.0502 68.1026 22.5104 68.1026 23.0559C68.1026 23.6847 67.9378 24.2528 67.6083 24.7604C67.2825 25.268 66.8053 25.6714 66.1765 25.9706C65.5515 26.2699 64.792 26.4195 63.8981 26.4195C63.0647 26.4195 62.3431 26.285 61.7333 26.0161C61.1272 25.7472 60.65 25.3722 60.3015 24.8911C59.9568 24.41 59.7617 23.8513 59.7162 23.215H61.1708C61.2087 23.6544 61.3564 24.018 61.614 24.3059C61.8753 24.59 62.2049 24.8021 62.6026 24.9422C63.0041 25.0786 63.4359 25.1468 63.8981 25.1468C64.4359 25.1468 64.9189 25.0597 65.3469 24.8854C65.775 24.7074 66.114 24.4612 66.364 24.1468C66.614 23.8286 66.739 23.4574 66.739 23.0331C66.739 22.6468 66.631 22.3324 66.4151 22.09C66.1992 21.8475 65.9151 21.6506 65.5628 21.4991C65.2106 21.3475 64.8299 21.215 64.4208 21.1013L62.989 20.6922C62.0799 20.4309 61.3602 20.0578 60.8299 19.5729C60.2996 19.0881 60.0344 18.4536 60.0344 17.6695C60.0344 17.018 60.2106 16.4498 60.5628 15.965C60.9189 15.4763 61.3962 15.0975 61.9947 14.8286C62.5969 14.5559 63.2693 14.4195 64.0117 14.4195C64.7617 14.4195 65.4284 14.554 66.0117 14.8229C66.595 15.0881 67.0572 15.4517 67.3981 15.9138C67.7428 16.3759 67.9246 16.9006 67.9435 17.4877H66.5799Z" fill="#1E417A"/>
<path d="M71.5176 26.215V17.4877H72.8585V26.215H71.5176ZM72.1994 16.0331C71.938 16.0331 71.7126 15.9441 71.5232 15.7661C71.3376 15.5881 71.2448 15.3741 71.2448 15.1241C71.2448 14.8741 71.3376 14.66 71.5232 14.482C71.7126 14.304 71.938 14.215 72.1994 14.215C72.4607 14.215 72.6842 14.304 72.8698 14.482C73.0592 14.66 73.1539 14.8741 73.1539 15.1241C73.1539 15.3741 73.0592 15.5881 72.8698 15.7661C72.6842 15.9441 72.4607 16.0331 72.1994 16.0331Z" fill="#1E417A"/>
<path d="M80.1172 29.6695C79.4694 29.6695 78.9126 29.5862 78.4467 29.4195C77.9808 29.2566 77.5925 29.0407 77.2819 28.7718C76.9751 28.5066 76.7308 28.2225 76.549 27.9195L77.6172 27.1695C77.7384 27.3286 77.8918 27.5104 78.0774 27.715C78.263 27.9233 78.5168 28.1032 78.8387 28.2547C79.1645 28.41 79.5906 28.4877 80.1172 28.4877C80.8217 28.4877 81.4031 28.3172 81.8615 27.9763C82.3198 27.6354 82.549 27.1013 82.549 26.3741V24.6013H82.4353C82.3369 24.7604 82.1967 24.9574 82.0149 25.1922C81.8369 25.4233 81.5793 25.6297 81.2422 25.8116C80.9088 25.9896 80.4581 26.0786 79.8899 26.0786C79.1853 26.0786 78.5528 25.9119 77.9922 25.5786C77.4353 25.2453 76.994 24.7604 76.6683 24.1241C76.3463 23.4877 76.1853 22.715 76.1853 21.8059C76.1853 20.9119 76.3425 20.1335 76.6569 19.4706C76.9713 18.804 77.4088 18.2888 77.9694 17.9252C78.53 17.5578 79.1778 17.3741 79.9126 17.3741C80.4808 17.3741 80.9316 17.4688 81.2649 17.6581C81.602 17.8438 81.8596 18.0559 82.0376 18.2945C82.2194 18.5294 82.3596 18.7225 82.4581 18.8741H82.5944V17.4877H83.8899V26.465C83.8899 27.215 83.7194 27.8248 83.3785 28.2945C83.0414 28.768 82.5869 29.1146 82.0149 29.3343C81.4467 29.5578 80.8141 29.6695 80.1172 29.6695ZM80.0717 24.8741C80.6096 24.8741 81.0641 24.7509 81.4353 24.5047C81.8065 24.2585 82.0887 23.9044 82.2819 23.4422C82.4751 22.9801 82.5717 22.4271 82.5717 21.7831C82.5717 21.1544 82.477 20.5994 82.2876 20.1184C82.0982 19.6373 81.8179 19.2604 81.4467 18.9877C81.0755 18.715 80.6172 18.5786 80.0717 18.5786C79.5035 18.5786 79.03 18.7225 78.6512 19.0104C78.2762 19.2983 77.994 19.6847 77.8047 20.1695C77.619 20.6544 77.5262 21.1922 77.5262 21.7831C77.5262 22.3892 77.6209 22.9252 77.8103 23.3911C78.0035 23.8532 78.2876 24.2169 78.6626 24.482C79.0414 24.7434 79.5111 24.8741 80.0717 24.8741Z" fill="#1E417A"/>
<path d="M88.9653 20.965V26.215H87.6244V14.5786H88.9653V18.8513H89.079C89.2835 18.4006 89.5903 18.0426 89.9994 17.7775C90.4123 17.5085 90.9616 17.3741 91.6472 17.3741C92.2419 17.3741 92.7627 17.4934 93.2097 17.732C93.6566 17.9669 94.0032 18.3286 94.2494 18.8172C94.4994 19.3021 94.6244 19.9195 94.6244 20.6695V26.215H93.2835V20.7604C93.2835 20.0672 93.1036 19.5312 92.7438 19.1525C92.3877 18.7699 91.8934 18.5786 91.2608 18.5786C90.8214 18.5786 90.4275 18.6714 90.079 18.857C89.7343 19.0426 89.4616 19.3134 89.2608 19.6695C89.0638 20.0256 88.9653 20.4574 88.9653 20.965Z" fill="#1E417A"/>
<path fill-rule="evenodd" clip-rule="evenodd" d="M102.153 18.624V17.4877L100.289 17.4877V15.3968H98.9486V17.4877L97.6304 17.4877V18.624L98.9486 18.624V24.0786C98.9486 24.5862 99.066 25.0066 99.3008 25.3399C99.5395 25.6733 99.8387 25.9214 100.199 26.0843C100.562 26.2471 100.933 26.3286 101.312 26.3286C101.562 26.3286 101.769 26.3096 101.932 26.2718C102.094 26.2377 102.221 26.2036 102.312 26.1695L102.039 24.9649L101.812 25.0104C101.717 25.0256 101.596 25.0331 101.449 25.0331C101.252 25.0331 101.064 25.0028 100.886 24.9422C100.712 24.8778 100.568 24.7528 100.454 24.5672C100.344 24.3778 100.289 24.0937 100.289 23.7149V18.624L102.153 18.624Z" fill="#1E417A"/>
</g>
<g id="Vector_5">
<path d="M105.313 13.4288C104.431 13.4288 103.653 14.1633 103.653 15.1077C103.653 16.0521 104.379 16.7866 105.313 16.7866C106.246 16.7866 106.972 16.0521 106.972 15.1077C106.972 14.2158 106.246 13.4288 105.313 13.4288ZM105.313 16.5242C104.535 16.5242 103.913 15.8947 103.913 15.1077C103.913 14.3207 104.535 13.6912 105.313 13.6912C106.09 13.6912 106.713 14.3207 106.713 15.1077C106.713 15.8947 106.09 16.5242 105.313 16.5242Z" fill="#1E417A"/>
<path d="M106.035 14.7399C106.035 14.4251 105.827 14.2152 105.464 14.2152H104.687V15.999H104.998V15.2645H105.412L105.931 15.999H106.294L105.724 15.212C105.931 15.1071 106.035 14.9497 106.035 14.7399ZM104.998 14.4775H105.464C105.568 14.4775 105.724 14.53 105.724 14.6874C105.724 14.8448 105.62 14.8973 105.464 14.8973H104.998V14.4775Z" fill="#1E417A"/>
</g>
</g>
</svg>