<svg width="24" height="24" viewBox="0 0 24 24" fill="none" xmlns="http://www.w3.org/2000/svg">
<path fill-rule="evenodd" clip-rule="evenodd" d="M12.25 9.5C12.25 10.74 13.26 11.75 14.5 11.75C15.74 11.75 16.75 10.74 16.75 9.5C16.75 8.26 15.74 7.25 14.5 7.25C13.26 7.25 12.25 8.26 12.25 9.5ZM13.75 9.5C13.75 9.09 14.09 8.75 14.5 8.75C14.91 8.75 15.25 9.09 15.25 9.5C15.25 9.91 14.91 10.25 14.5 10.25C14.09 10.25 13.75 9.91 13.75 9.5Z" fill="white"/>
<path fill-rule="evenodd" clip-rule="evenodd" d="M6.18014 22.7499C6.08014 22.7499 5.97014 22.7399 5.88014 22.7299L3.71014 22.4299C2.67014 22.2899 1.73014 21.3599 1.57014 20.2999L1.27014 18.1099C1.17014 17.4099 1.47014 16.4999 1.97014 15.9899L6.36014 11.5999C5.65014 8.75992 6.47014 5.75992 8.56014 3.68992C11.8001 0.459923 17.0701 0.449923 20.3201 3.68992C21.8901 5.25992 22.7501 7.34992 22.7501 9.56992C22.7501 11.7899 21.8901 13.8799 20.3201 15.4499C18.2201 17.5299 15.2301 18.3499 12.4101 17.6299L9.77179 20.2623C9.75572 20.2821 9.73848 20.3013 9.72008 20.3197C9.70061 20.3392 9.68046 20.3573 9.65973 20.3741L8.01014 22.0199C7.59014 22.4599 6.84014 22.7499 6.18014 22.7499ZM11.6401 16.2599L9.17762 18.7172L7.42008 16.9597C7.13008 16.6697 6.65008 16.6697 6.36008 16.9597C6.07008 17.2497 6.07008 17.7297 6.36008 18.0197L8.11649 19.7761L6.92014 20.9699C6.75014 21.1399 6.31014 21.2799 6.07014 21.2399L3.89014 20.9399C3.51014 20.8899 3.10014 20.4599 3.04014 20.0799L2.74014 17.8899C2.71014 17.6599 2.85014 17.2199 3.02014 17.0499L7.72014 12.3499C7.92014 12.1499 7.99014 11.8699 7.91014 11.5999C7.16014 9.15992 7.81014 6.53992 9.61014 4.74992C10.9401 3.41992 12.6801 2.75992 14.4301 2.75992C16.1801 2.75992 17.9301 3.42992 19.2301 4.74992C20.5101 6.02992 21.2201 7.73992 21.2201 9.56992C21.2201 11.3899 20.5101 13.1099 19.2301 14.3899C17.4301 16.1899 14.8001 16.8399 12.3901 16.0799C12.1301 15.9999 11.8401 16.0599 11.6401 16.2599Z" fill="white"/>
</svg>
