<svg width="22" height="20" viewBox="0 0 22 20" fill="none" xmlns="http://www.w3.org/2000/svg">
<path d="M8.76 12.5H11.26C14.71 12.5 17.5 9.7 17.5 6.25C17.5 2.8 14.7 0 11.25 0H6.25C2.8 0 0 2.8 0 6.25C0 7.7 0.510002 9.11001 1.44 10.23C1.71 10.55 2.18 10.59 2.5 10.33C2.82 10.06 2.86 9.58999 2.6 9.26999C1.9 8.41999 1.51 7.35 1.51 6.25C1.51 3.63 3.64 1.5 6.26 1.5H11.26C13.88 1.5 16.01 3.63 16.01 6.25C16.01 8.87 13.88 11 11.26 11H8.76C8.35 11 8.01 11.34 8.01 11.75C8.01 12.16 8.35 12.5 8.76 12.5Z" fill="white"/>
<path d="M10.2598 19.5H15.2598C18.7098 19.5 21.5098 16.7 21.5198 13.25C21.5198 11.8 21.0098 10.39 20.0798 9.26999C19.8098 8.94999 19.3398 8.90001 19.0198 9.17001C18.6998 9.44001 18.6598 9.91001 18.9198 10.23C19.6198 11.08 20.0098 12.15 20.0098 13.25C20.0098 15.87 17.8798 18 15.2598 18H10.2598C7.63977 18 5.50977 15.87 5.50977 13.25C5.50977 10.63 7.63977 8.5 10.2598 8.5H12.7598C13.1698 8.5 13.5098 8.16 13.5098 7.75C13.5098 7.34 13.1698 7 12.7598 7H10.2598C6.80977 7 4.00977 9.8 4.00977 13.25C4.00977 16.7 6.80977 19.5 10.2598 19.5Z" fill="white"/>
</svg>
