<svg width="22" height="22" viewBox="0 0 22 22" fill="none" xmlns="http://www.w3.org/2000/svg">
<path d="M6.62 15.9199C6.74 15.9699 6.87 15.9999 7 15.9999C7.26 15.9999 7.51999 15.8899 7.70999 15.7099C7.88999 15.5199 8 15.2599 8 14.9999C8 14.8699 7.97001 14.7399 7.92001 14.6199C7.87001 14.4999 7.79999 14.3899 7.70999 14.2899C7.42999 14.0099 6.98 13.9199 6.62 14.0799C6.49 14.1299 6.39001 14.1999 6.29001 14.2899C6.20001 14.3899 6.12999 14.4899 6.07999 14.6199C6.02999 14.7399 6 14.8699 6 14.9999C6 15.2699 6.11001 15.5199 6.29001 15.7099C6.39001 15.7999 6.49 15.8699 6.62 15.9199Z" fill="white"/>
<path d="M11 15.9999C10.74 15.9999 10.48 15.8899 10.29 15.7099C10.11 15.5199 10 15.2699 10 14.9999C10 14.8699 10.02 14.7399 10.08 14.6199C10.13 14.4999 10.2 14.3899 10.29 14.2899C10.52 14.0599 10.87 13.9499 11.19 14.0199C11.26 14.0299 11.32 14.0499 11.38 14.0799C11.44 14.0999 11.5 14.1299 11.56 14.1699C11.5933 14.1899 11.6267 14.2188 11.66 14.2477C11.6767 14.2621 11.6933 14.2766 11.71 14.2899C11.8 14.3899 11.87 14.4999 11.92 14.6199C11.97 14.7399 12 14.8699 12 14.9999C12 15.2699 11.89 15.5199 11.71 15.7099L11.56 15.8299C11.5 15.8699 11.44 15.8999 11.38 15.9199C11.32 15.9499 11.26 15.9699 11.19 15.9799C11.13 15.9899 11.06 15.9999 11 15.9999Z" fill="white"/>
<path d="M14.29 15.7099C14.48 15.8899 14.73 15.9999 15 15.9999C15.26 15.9999 15.52 15.8899 15.71 15.7099C15.8 15.6099 15.87 15.5099 15.92 15.3799C15.97 15.2599 16 15.1299 16 14.9999C16 14.7299 15.89 14.4799 15.71 14.2899C15.47 14.0599 15.13 13.9499 14.8 14.0199C14.74 14.0299 14.68 14.0499 14.62 14.0799C14.56 14.0999 14.5 14.1299 14.44 14.1699L14.29 14.2899C14.11 14.4799 14 14.7399 14 14.9999C14 15.1299 14.03 15.2599 14.08 15.3799C14.13 15.4999 14.2 15.6099 14.29 15.7099Z" fill="white"/>
<path fill-rule="evenodd" clip-rule="evenodd" d="M4.25 7V8.34221C1.22527 8.70987 0.25 10.2377 0.25 14V16C0.25 20.41 1.59 21.75 6 21.75H16C20.41 21.75 21.75 20.41 21.75 16V14C21.75 10.2377 20.7747 8.70987 17.75 8.34221V7C17.75 4.1 17.05 0.25 11 0.25C4.95 0.25 4.25 4.1 4.25 7ZM16.25 7V8.25149C16.1678 8.25049 16.0845 8.25 16 8.25H6C5.91554 8.25 5.83222 8.25049 5.75 8.25149V7C5.75 3.85 6.64 1.75 11 1.75C15.36 1.75 16.25 3.85 16.25 7ZM6 9.75C2.42 9.75 1.75 10.43 1.75 14V16C1.75 19.57 2.42 20.25 6 20.25H16C19.58 20.25 20.25 19.57 20.25 16V14C20.25 10.43 19.58 9.75 16 9.75H6Z" fill="white"/>
</svg>
