<svg width="24" height="24" viewBox="0 0 24 24" fill="none" xmlns="http://www.w3.org/2000/svg">
<path d="M16.5 9.25H18.5C18.91 9.25 19.25 8.91 19.25 8.5C19.25 8.09 18.91 7.75 18.5 7.75H16.5C15.81 7.75 15.25 7.19 15.25 6.5V4.5C15.25 4.09 14.91 3.75 14.5 3.75C14.09 3.75 13.75 4.09 13.75 4.5V6.5C13.75 8.02 14.98 9.25 16.5 9.25Z" fill="white"/>
<path d="M9.99945 17.75C9.80945 17.75 9.61945 17.68 9.46945 17.53L7.46945 15.53C7.17945 15.24 7.17945 14.7599 7.46945 14.4699L9.46945 12.4699C9.75945 12.1799 10.2395 12.1799 10.5295 12.4699C10.8195 12.7599 10.8195 13.24 10.5295 13.53L9.05945 15L10.5295 16.4699C10.8195 16.7599 10.8195 17.24 10.5295 17.53C10.3795 17.68 10.1895 17.75 9.99945 17.75Z" fill="white"/>
<path d="M13.4695 17.53C13.6195 17.68 13.8095 17.75 13.9995 17.75C14.1895 17.75 14.3795 17.68 14.5295 17.53L16.5295 15.53C16.8195 15.24 16.8195 14.7599 16.5295 14.4699L14.5295 12.4699C14.2395 12.1799 13.7595 12.1799 13.4695 12.4699C13.1795 12.7599 13.1795 13.24 13.4695 13.53L14.9395 15L13.4695 16.4699C13.1795 16.7599 13.1795 17.24 13.4695 17.53Z" fill="white"/>
<path fill-rule="evenodd" clip-rule="evenodd" d="M8 22.75H16C19.65 22.75 21.75 20.65 21.75 17V7C21.75 3.35 19.65 1.25 16 1.25H8C4.35 1.25 2.25 3.35 2.25 7V17C2.25 20.65 4.35 22.75 8 22.75ZM3.75 7C3.75 4.14 5.14 2.75 8 2.75H16C18.86 2.75 20.25 4.14 20.25 7V17C20.25 19.86 18.86 21.25 16 21.25H8C5.14 21.25 3.75 19.86 3.75 17V7Z" fill="white"/>
</svg>
