<svg width="24" height="24" viewBox="0 0 24 24" fill="none" xmlns="http://www.w3.org/2000/svg">
<path d="M9.9202 7.25C10.0702 7.4 10.2602 7.46997 10.4502 7.46997C10.6402 7.46997 10.8302 7.4 10.9802 7.25C11.2702 6.96 11.2702 6.48 10.9802 6.19L7.26023 2.46997C7.12023 2.32997 6.9302 2.25 6.7302 2.25C6.5302 2.25 6.34023 2.32997 6.20023 2.46997L2.4802 6.19C2.1902 6.48 2.1902 6.96 2.4802 7.25C2.7702 7.54 3.25019 7.54 3.54019 7.25L5.97998 4.81021V21C5.97998 21.41 6.31998 21.75 6.72998 21.75C7.13998 21.75 7.47998 21.41 7.47998 21V4.80978L9.9202 7.25Z" fill="white"/>
<path d="M16.52 19.18L14.09 16.75C13.8 16.46 13.32 16.46 13.03 16.75C12.74 17.04 12.74 17.52 13.03 17.81L16.6815 21.4615C16.8196 21.6365 17.0331 21.75 17.27 21.75C17.2724 21.75 17.2748 21.75 17.2773 21.75L17.28 21.75C17.47 21.75 17.67 21.67 17.81 21.53L21.53 17.81C21.82 17.52 21.82 17.04 21.53 16.75C21.24 16.46 20.7599 16.46 20.4699 16.75L18.02 19.1999V3C18.02 2.59 17.68 2.25 17.27 2.25C16.86 2.25 16.52 2.59 16.52 3V19.18Z" fill="white"/>
</svg>
