<?xml version="1.0" encoding="utf-8"?>
<svg xmlns="http://www.w3.org/2000/svg" width="19" height="18" viewBox="0 0 19 18" fill="none">
<path d="M5.97498 8.99984C5.97498 9.3415 6.25831 9.62484 6.59998 9.62484H13.2666C13.6166 9.62484 13.8916 9.3415 13.8916 8.99984C13.8916 8.65817 13.6083 8.37484 13.2666 8.37484H6.59998C6.25831 8.37484 5.97498 8.65817 5.97498 8.99984Z" fill="#1E417A"/>
<path fill-rule="evenodd" clip-rule="evenodd" d="M0.974976 8.99984C0.974976 13.9415 4.99998 17.9582 9.93331 17.9582C14.875 17.9582 18.8916 13.9415 18.8916 8.99984C18.8916 4.05817 14.8666 0.0415039 9.93331 0.0415039C4.99998 0.0415039 0.974976 4.05817 0.974976 8.99984ZM2.22498 8.99984C2.22498 4.74984 5.68331 1.2915 9.93331 1.2915C14.1833 1.2915 17.6416 4.74984 17.6416 8.99984C17.6416 13.2498 14.1833 16.7082 9.93331 16.7082C5.68331 16.7082 2.22498 13.2498 2.22498 8.99984Z" fill="#1E417A"/>
</svg>