<?xml version="1.0" encoding="utf-8"?>
<svg xmlns="http://www.w3.org/2000/svg" fill="none" height="66" viewBox="0 0 67 66" width="67">
<g clip-path="url(#clip0_1618_14461)" id="Frame">
<g id="Group">
<path d="M65.052 56.9357H61.788V40.6157H59.612V56.9357H42.6528C41.3744 56.9357 40.1504 57.4389 39.2528 58.3365C38.7632 58.8261 38.0968 59.1117 37.3896 59.1117H29.5832C28.8896 59.1117 28.2232 58.8397 27.72 58.3365C26.8224 57.4389 25.5984 56.9221 24.32 56.9357H7.38799V25.3837C7.38799 24.1869 8.36719 23.2077 9.56398 23.2077V21.0317C7.15679 21.0317 5.21199 22.9765 5.21199 25.3837V56.9357H1.94799C1.34959 56.9357 0.859985 57.4253 0.859985 58.0237V61.2877C0.859985 63.6949 2.80479 65.6397 5.21199 65.6397H61.788C64.1952 65.6397 66.14 63.6949 66.14 61.2877V58.0237C66.14 57.4253 65.6504 56.9357 65.052 56.9357ZM63.964 61.2877C63.964 62.4845 62.9848 63.4637 61.788 63.4637H5.21199C4.01519 63.4637 3.03599 62.4845 3.03599 61.2877V59.1117H24.3472C25.0408 59.1117 25.7072 59.3837 26.2104 59.8869C27.108 60.7845 28.332 61.3013 29.6104 61.2877H37.4168C38.6952 61.2877 39.9192 60.7845 40.8168 59.8869C41.3064 59.3973 41.9728 59.1117 42.68 59.1117H63.964V61.2877Z" fill="#1B75BC" id="Vector"/>
<path d="M55.26 44.9678H53.084V54.7598H55.26V44.9678Z" fill="#1E417A" id="Vector_2"/>
<path d="M26.972 12.3281H16.092C13.6848 12.3281 11.74 14.2729 11.74 16.6801V54.7601H13.916V16.6801C13.916 15.4833 14.8952 14.5041 16.092 14.5041H26.972V12.3281Z" fill="#1E417A" id="Vector_3"/>
<path d="M19.356 27.5601C17.5472 27.5601 16.092 29.0153 16.092 30.8241C16.092 32.6329 17.5472 34.0881 19.356 34.0881C21.1648 34.0881 22.62 32.6329 22.62 30.8241C22.62 29.0289 21.1512 27.5601 19.356 27.5601ZM19.356 31.9121C18.7576 31.9121 18.268 31.4225 18.268 30.8241C18.268 30.2257 18.7576 29.7361 19.356 29.7361C19.9544 29.7361 20.444 30.2257 20.444 30.8241C20.444 31.4225 19.9544 31.9121 19.356 31.9121Z" fill="#FF9800" id="Vector_4"/>
<path d="M19.356 36.2637C17.5472 36.2637 16.092 37.7189 16.092 39.5277C16.092 41.3365 17.5472 42.7917 19.356 42.7917C21.1648 42.7917 22.62 41.3365 22.62 39.5277C22.62 37.7325 21.1512 36.2637 19.356 36.2637ZM19.356 40.6157C18.7576 40.6157 18.268 40.1261 18.268 39.5277C18.268 38.9293 18.7576 38.4397 19.356 38.4397C19.9544 38.4397 20.444 38.9293 20.444 39.5277C20.444 40.1261 19.9544 40.6157 19.356 40.6157Z" fill="#FF9800" id="Vector_5"/>
<path d="M28.06 29.1782H24.796V31.3542H28.06V29.1782Z" fill="#1B75BC" id="Vector_6"/>
<path d="M45.2368 38.1406H24.796V40.3166H45.2368V38.1406Z" fill="#1B75BC" id="Vector_7"/>
<path d="M19.356 44.9678C17.5472 44.9678 16.092 46.423 16.092 48.2318C16.092 50.0406 17.5472 51.4958 19.356 51.4958C21.1648 51.4958 22.62 50.0406 22.62 48.2318C22.62 46.4366 21.1512 44.9678 19.356 44.9678ZM19.356 49.3198C18.7576 49.3198 18.268 48.8302 18.268 48.2318C18.268 47.6334 18.7576 47.1438 19.356 47.1438C19.9544 47.1438 20.444 47.6334 20.444 48.2318C20.444 48.8302 19.9544 49.3198 19.356 49.3198Z" fill="#FF9800" id="Vector_8"/>
<path d="M45.468 47.0894H24.796V49.2654H45.468V47.0894Z" fill="#1B75BC" id="Vector_9"/>
<path d="M26.972 20.2158H16.092V22.3918H26.972V20.2158Z" fill="#1B75BC" id="Vector_10"/>
<path d="M30.282 4.2793C30.282 2.62244 31.6251 1.2793 33.282 1.2793H61.3011C62.958 1.2793 64.3011 2.62244 64.3011 4.2793V31.6641C64.3011 33.2053 63.1332 34.4958 61.5996 34.6492L56.1723 35.1919C55.4833 35.2608 54.8392 35.566 54.3495 36.0557L49.5901 40.8151C49.2509 41.1544 48.6707 40.9141 48.6707 40.4342V36.8229C48.6707 35.7192 47.7906 34.8167 46.6871 34.7891L33.207 34.4521C31.5799 34.4115 30.282 33.0807 30.282 31.4531V4.2793Z" fill="white" id="Rectangle 75"/>
<path d="M60.7 0.359863H34.588C31.5824 0.359863 29.148 2.79426 29.148 5.79986V30.0759C29.148 33.0815 31.5824 35.5159 34.588 35.5159H47.644V42.2207C47.644 42.8191 48.1336 43.1319 48.732 43.1319C49.0176 43.1319 49.3032 43.0231 49.5072 42.8191L56.8104 35.5159H60.7C63.7056 35.5159 66.14 33.0815 66.14 30.0759V5.79986C66.14 2.79426 63.7056 0.359863 60.7 0.359863ZM63.964 30.0759C63.964 31.8711 62.4952 33.3399 60.7 33.3399H56.348C56.0624 33.3399 55.7768 33.4487 55.5728 33.6527L49.82 39.4191V34.4279C49.82 33.8295 49.3304 33.3399 48.732 33.3399H34.588C32.7928 33.3399 31.324 31.8711 31.324 30.0759V5.79986C31.324 4.00466 32.7928 2.53586 34.588 2.53586H60.7C62.4952 2.53586 63.964 4.00466 63.964 5.79986V30.0759Z" fill="#1E417A" id="Vector_11"/>
</g>
<path d="M45.7561 22.0129C45.7561 20.7879 45.9049 19.8123 46.2024 19.0861C46.4999 18.3598 47.0424 17.6467 47.8299 16.9467C48.6261 16.2379 49.1555 15.6648 49.418 15.2273C49.6805 14.7811 49.8117 14.3129 49.8117 13.8229C49.8117 12.3442 49.1292 11.6048 47.7642 11.6048C47.1167 11.6048 46.5961 11.8061 46.2024 12.2086C45.8174 12.6023 45.6161 13.1492 45.5986 13.8492H41.7924C41.8099 12.1779 42.348 10.8698 43.4067 9.92482C44.4742 8.97982 45.9267 8.50732 47.7642 8.50732C49.6192 8.50732 51.0586 8.95795 52.0824 9.8592C53.1061 10.7517 53.618 12.0161 53.618 13.6523C53.618 14.3961 53.4517 15.1004 53.1192 15.7654C52.7867 16.4217 52.2049 17.1523 51.3736 17.9573L50.3105 18.9679C49.6455 19.6067 49.2649 20.3548 49.1686 21.2123L49.1161 22.0129H45.7561ZM45.3755 26.0423C45.3755 25.4561 45.5724 24.9748 45.9661 24.5986C46.3686 24.2136 46.8805 24.0211 47.5017 24.0211C48.123 24.0211 48.6305 24.2136 49.0242 24.5986C49.4267 24.9748 49.628 25.4561 49.628 26.0423C49.628 26.6198 49.4311 27.0967 49.0374 27.4729C48.6524 27.8492 48.1405 28.0373 47.5017 28.0373C46.863 28.0373 46.3467 27.8492 45.953 27.4729C45.568 27.0967 45.3755 26.6198 45.3755 26.0423Z" fill="#FF9800" id="?"/>
</g>
<defs>
<clipPath id="clip0_1618_14461">
<rect fill="white" height="65.28" transform="translate(0.859985 0.359863)" width="65.28"/>
</clipPath>
</defs>
</svg>