<?xml version="1.0" encoding="utf-8"?>
<svg xmlns="http://www.w3.org/2000/svg" width="20" height="22" viewBox="0 0 20 22" fill="none">
<g id="vuesax/outline/notification-bing">
<g id="notification-bing">
<g id="Union">
<path d="M10.0004 9.51973C9.59037 9.51973 9.25037 9.17973 9.25037 8.76973V5.43973C9.25037 5.02973 9.59037 4.68973 10.0004 4.68973C10.4104 4.68973 10.7504 5.02973 10.7504 5.43973V8.76973C10.7504 9.18973 10.4104 9.51973 10.0004 9.51973Z" fill="black" fill-opacity="0.87"/>
<path fill-rule="evenodd" clip-rule="evenodd" d="M6.10935 19.0319C4.85934 18.827 3.62527 18.5229 2.42023 18.1195C1.51023 17.8195 0.820233 17.1695 0.520233 16.3495C0.220233 15.5295 0.320233 14.5895 0.810233 13.7695L2.08023 11.6495C2.36023 11.1795 2.61023 10.2995 2.61023 9.74953V7.64953C2.61023 3.55953 5.93023 0.239532 10.0202 0.239532C14.1102 0.239532 17.4302 3.55953 17.4302 7.64953V9.74953C17.4302 10.2895 17.6802 11.1795 17.9602 11.6495L19.2302 13.7695C19.7002 14.5495 19.7802 15.4795 19.4702 16.3295C19.1602 17.1795 18.4802 17.8295 17.6202 18.1195C16.4031 18.5319 15.1563 18.8381 13.8934 19.0419C13.3729 20.6965 11.8247 21.8996 10.0003 21.8996C8.93029 21.8996 7.88029 21.4596 7.12029 20.6996C6.65308 20.2324 6.30681 19.6556 6.10935 19.0319ZM7.86251 19.2535C7.95544 19.3916 8.06176 19.5211 8.18029 19.6396C8.66029 20.1196 9.32029 20.3996 10.0003 20.3996C10.8884 20.3996 11.6748 19.9459 12.1393 19.2586C11.4352 19.3194 10.7281 19.3495 10.0202 19.3495C9.29941 19.3495 8.57937 19.3175 7.86251 19.2535ZM10.0202 1.74953C6.76023 1.74953 4.11023 4.39953 4.11023 7.65953V9.75953C4.11023 10.5695 3.79023 11.7395 3.37023 12.4295L2.10023 14.5595C1.84023 14.9895 1.78023 15.4495 1.93023 15.8495C2.08023 16.2495 2.42023 16.5495 2.90023 16.7095C7.50023 18.2395 12.5602 18.2395 17.1602 16.7095C17.5902 16.5695 17.9202 16.2495 18.0702 15.8295C18.2302 15.4095 18.1802 14.9495 17.9502 14.5595L16.6802 12.4395C16.2602 11.7495 15.9402 10.5795 15.9402 9.76953V7.66953C15.9302 4.39953 13.2802 1.74953 10.0202 1.74953Z" fill="black" fill-opacity="0.87"/>
</g>
</g>
</g>
</svg>