<svg width="24" height="24" viewBox="0 0 24 24" fill="none" xmlns="http://www.w3.org/2000/svg">
<path d="M9 22.75H12C12.41 22.75 12.75 22.41 12.75 22C12.75 21.59 12.41 21.25 12 21.25H9C4.39 21.25 2.75 19.61 2.75 15V9C2.75 4.39 4.39 2.75 9 2.75H15C19.61 2.75 21.25 4.39 21.25 9V12C21.25 12.41 21.59 12.75 22 12.75C22.41 12.75 22.75 12.41 22.75 12V9C22.75 3.57 20.43 1.25 15 1.25H9C3.57 1.25 1.25 3.57 1.25 9V15C1.25 20.43 3.57 22.75 9 22.75Z" fill="white"/>
<path fill-rule="evenodd" clip-rule="evenodd" d="M16.3502 22.77H16.3702C17.3702 22.77 18.2102 22.16 18.5202 21.21L19.0802 19.57C19.1502 19.34 19.3302 19.17 19.5602 19.09L21.1902 18.54C22.1502 18.22 22.7602 17.37 22.7502 16.37C22.7402 15.36 22.1102 14.52 21.1502 14.22L15.1902 12.37C14.3902 12.12 13.5202 12.34 12.9202 12.93C12.3102 13.52 12.1002 14.4 12.3502 15.22L14.2002 21.17C14.5002 22.14 15.3402 22.76 16.3502 22.77ZM13.9802 13.99C14.0602 13.92 14.2402 13.77 14.5102 13.77C14.5802 13.77 14.6602 13.78 14.7602 13.81L20.7202 15.66C21.2202 15.82 21.2602 16.26 21.2602 16.39C21.2602 16.52 21.2302 16.96 20.7302 17.12L19.1002 17.67C18.4302 17.9 17.8902 18.43 17.6702 19.1L17.1102 20.74C16.9502 21.23 16.5202 21.27 16.3802 21.27L16.3743 21.2696C16.2102 21.2595 15.7983 21.2339 15.6402 20.73L13.7902 14.78C13.7002 14.49 13.7702 14.2 13.9802 13.99Z" fill="white"/>
</svg>
