<?xml version="1.0" encoding="utf-8"?>
<svg xmlns="http://www.w3.org/2000/svg" width="15" height="15" viewBox="0 0 15 15" fill="none">
<g id="pencil">
<path id="Union" fill-rule="evenodd" clip-rule="evenodd" d="M0.799169 11.6601C0.592341 12.4927 0.75144 13.2458 1.23404 13.7284C1.71664 14.211 2.46971 14.3701 3.29702 14.1474L4.45314 13.861C4.87741 13.7549 6.7532 12.1231 7.06079 11.8155L12.7822 6.09407C12.8067 6.07658 12.8301 6.05688 12.852 6.03498C12.8739 6.01308 12.8936 5.98972 12.9111 5.9652L13.9339 4.94242C15.0157 3.86055 15.0157 2.09985 13.9339 1.01798C12.852 -0.0638948 11.0913 -0.0638949 10.0094 1.01798L1.8121 9.21529C1.50451 9.52288 1.19161 10.0797 1.08555 10.504L0.799169 11.6601ZM12.4542 4.84169L13.1437 4.15223C13.7854 3.51053 13.7854 2.46048 13.1437 1.81878C12.502 1.17708 11.4519 1.17708 10.8102 1.81878L10.1208 2.50824L12.4542 4.84169ZM9.32526 3.30374L2.6182 10.0108C2.4538 10.1752 2.24167 10.5464 2.18333 10.7745L1.89695 11.9306C1.78558 12.3708 1.83862 12.7314 2.03484 12.9276C2.23106 13.1238 2.59699 13.1716 3.03186 13.0655L4.18798 12.7791C4.41602 12.7208 4.78725 12.5086 4.95165 12.3442L11.6587 5.63719L9.32526 3.30374Z" fill="black" fill-opacity="0.56"/>
</g>
</svg>