<svg width="18" height="19" viewBox="0 0 18 19" fill="none" xmlns="http://www.w3.org/2000/svg">
<path fill-rule="evenodd" clip-rule="evenodd" d="M6.99755 12.9224C7.27505 13.0799 7.59005 13.1624 7.92005 13.1624C8.34755 13.1624 8.82005 13.0274 9.28505 12.7499L11.4601 11.4974C12.2926 11.0174 12.7501 10.3349 12.7501 9.59242C12.7501 8.84242 12.2926 8.16742 11.4601 7.68742L9.28505 6.43492C8.45255 5.95492 7.63505 5.89492 6.99005 6.26992C6.34505 6.64492 5.99255 7.37992 5.99255 8.33992V10.8524C5.99255 11.8124 6.35255 12.5474 6.99755 12.9224ZM7.56005 7.23742C7.65755 7.17742 7.78505 7.14742 7.92005 7.14742C8.15255 7.14742 8.43005 7.23742 8.73005 7.41742L10.9051 8.66992C11.3626 8.93992 11.6326 9.27742 11.6326 9.59992C11.6326 9.92242 11.3701 10.2599 10.9051 10.5299L8.73005 11.7824C8.26505 12.0449 7.83755 12.1124 7.56005 11.9474C7.27505 11.7899 7.11755 11.3849 7.11755 10.8524V8.33992C7.11755 7.79992 7.27505 7.40242 7.56005 7.23742Z" fill="black" fill-opacity="0.56"/>
<path fill-rule="evenodd" clip-rule="evenodd" d="M0.915039 9.41992C0.915039 13.8674 4.53754 17.4824 8.97754 17.4824C13.425 17.4824 17.04 13.8674 17.04 9.41992C17.04 4.97242 13.4175 1.35742 8.97754 1.35742C4.53754 1.35742 0.915039 4.97242 0.915039 9.41992ZM2.04004 9.41992C2.04004 5.59492 5.15254 2.48242 8.97754 2.48242C12.8025 2.48242 15.915 5.59492 15.915 9.41992C15.915 13.2449 12.8025 16.3574 8.97754 16.3574C5.15254 16.3574 2.04004 13.2449 2.04004 9.41992Z" fill="black" fill-opacity="0.56"/>
</svg>
