<svg width="24" height="24" viewBox="0 0 24 24" fill="none" xmlns="http://www.w3.org/2000/svg">
<path d="M9.50024 14.7501H14.5002C14.9102 14.7501 15.2502 14.4101 15.2502 14.0001C15.2502 13.5901 14.9102 13.2501 14.5002 13.2501H9.50024C9.09024 13.2501 8.75024 13.5901 8.75024 14.0001C8.75024 14.4101 9.09024 14.7501 9.50024 14.7501Z" fill="white"/>
<path fill-rule="evenodd" clip-rule="evenodd" d="M7.30018 19.73C6.56018 19.73 5.81018 19.2 5.56018 18.51L1.42018 6.92004C0.910179 5.46004 1.28018 4.79004 1.68018 4.49004C2.08018 4.19004 2.83018 4.01004 4.09018 4.91004L7.99018 7.70004C8.11018 7.77004 8.22018 7.80004 8.30018 7.78004C8.39018 7.75004 8.46018 7.67004 8.51018 7.53004L10.2702 2.84004C10.8002 1.44004 11.5802 1.23004 12.0002 1.23004C12.4202 1.23004 13.2002 1.44004 13.7302 2.84004L15.4902 7.53004C15.5402 7.66004 15.6102 7.75004 15.7002 7.78004C15.7902 7.81004 15.9002 7.78004 16.0102 7.69004L19.6702 5.08004C21.0102 4.12004 21.7902 4.31004 22.2202 4.62004C22.6402 4.94004 23.0302 5.65004 22.4802 7.20004L18.4402 18.51C18.1902 19.2 17.4402 19.73 16.7002 19.73H7.30018ZM2.68018 5.81004C2.70018 5.95004 2.74018 6.15004 2.84018 6.41004L6.98018 18C7.02018 18.1 7.20018 18.23 7.30018 18.23H16.7002C16.8102 18.23 16.9902 18.1 17.0202 18L21.0602 6.70004C21.2002 6.32004 21.2402 6.06004 21.2502 5.91004C21.1002 5.96004 20.8702 6.07004 20.5402 6.31004L16.8802 8.92004C16.3802 9.27004 15.7902 9.38004 15.2602 9.22004C14.7302 9.06004 14.3002 8.64004 14.0802 8.07004L12.3202 3.38004C12.1902 3.03004 12.0702 2.86004 12.0002 2.78004C11.9302 2.86004 11.8102 3.03004 11.6802 3.37004L9.92018 8.06004C9.71018 8.63004 9.28018 9.05004 8.74018 9.21004C8.21018 9.37004 7.61018 9.26004 7.12018 8.91004L3.22018 6.12004C2.99018 5.96004 2.81018 5.86004 2.68018 5.81004Z" fill="white"/>
<path d="M17.5002 22.7501H6.50024C6.09024 22.7501 5.75024 22.4101 5.75024 22.0001C5.75024 21.5901 6.09024 21.2501 6.50024 21.2501H17.5002C17.9102 21.2501 18.2502 21.5901 18.2502 22.0001C18.2502 22.4101 17.9102 22.7501 17.5002 22.7501Z" fill="white"/>
</svg>
