<?xml version="1.0" encoding="utf-8"?>
<svg xmlns="http://www.w3.org/2000/svg" width="22" height="22" viewBox="0 0 22 22" fill="none">
<path d="M5 16.75C4.59 16.75 4.25 16.41 4.25 16V12C4.25 11.59 4.59 11.25 5 11.25C5.41 11.25 5.75 11.59 5.75 12V16C5.75 16.41 5.41 16.75 5 16.75Z" fill="black" fill-opacity="0.66"/>
<path d="M12.25 12C12.25 12.41 12.59 12.75 13 12.75C13.41 12.75 13.75 12.41 13.75 12V7C13.75 6.59 13.41 6.25 13 6.25C12.59 6.25 12.25 6.59 12.25 7V12Z" fill="black" fill-opacity="0.66"/>
<path d="M17 12.75C16.59 12.75 16.25 12.41 16.25 12V7C16.25 6.59 16.59 6.25 17 6.25C17.41 6.25 17.75 6.59 17.75 7V12C17.75 12.41 17.41 12.75 17 12.75Z" fill="black" fill-opacity="0.66"/>
<path fill-rule="evenodd" clip-rule="evenodd" d="M18 21.75C20.42 21.75 21.75 20.42 21.75 18V4C21.75 1.58 20.42 0.25 18 0.25H12C10.2481 0.25 9.06742 0.947018 8.54905 2.25H6C4.48 2.25 3.25 3.48 3.25 5V6.29681C1.30665 6.55193 0.25 7.84297 0.25 10V18C0.25 20.42 1.58 21.75 4 21.75H18ZM8.25 18V7.75H4C2.42 7.75 1.75 8.42 1.75 10V18C1.75 19.58 2.42 20.25 4 20.25H8.79844C8.43703 19.6617 8.25 18.9075 8.25 18ZM8.25 6.25V3.75H6C5.31 3.75 4.75 4.31 4.75 5V6.25H8.25ZM9.85014 3.0856C10.0894 2.15729 10.7681 1.75 12 1.75H18C19.58 1.75 20.25 2.42 20.25 4V18C20.25 19.58 19.58 20.25 18 20.25H17.75V17C17.75 16.04 16.96 15.25 16 15.25H14C13.04 15.25 12.25 16.04 12.25 17V20.25H12C10.42 20.25 9.75 19.58 9.75 18V4C9.75 3.73733 9.76852 3.49982 9.80665 3.28635C9.81365 3.2535 9.82141 3.22145 9.82999 3.19C9.83937 3.1556 9.84606 3.12072 9.85014 3.0856ZM13.75 20.25H16.25V17C16.25 16.86 16.14 16.75 16 16.75H14C13.86 16.75 13.75 16.86 13.75 17V20.25Z" fill="black" fill-opacity="0.66"/>
</svg>