<?xml version="1.0" encoding="utf-8"?>
<svg xmlns="http://www.w3.org/2000/svg" width="18" height="16" viewBox="0 0 18 16" fill="none">
<g id="vuesax/outline/star">
<g id="star">
<path id="Vector" d="M13.245 16.0026C12.8475 16.0026 12.3375 15.8751 11.7 15.5001L9.4575 14.1726C9.225 14.0376 8.775 14.0376 8.55 14.1726L6.3 15.5001C4.9725 16.2876 4.1925 15.9726 3.84 15.7176C3.495 15.4626 2.955 14.8101 3.3075 13.3101L3.84 11.0076C3.9 10.7676 3.78 10.3551 3.6 10.1751L1.74 8.31514C0.809997 7.38514 0.884997 6.59014 1.0125 6.20014C1.14 5.81014 1.545 5.12014 2.835 4.90264L5.2275 4.50514C5.4525 4.46764 5.775 4.22764 5.8725 4.02514L7.2 1.37764C7.8 0.170143 8.5875 -0.00985718 9 -0.00985718C9.4125 -0.00985718 10.2 0.170143 10.8 1.37764L12.12 4.01764C12.225 4.22014 12.5475 4.46014 12.7725 4.49764L15.165 4.89514C16.4625 5.11264 16.8675 5.80264 16.9875 6.19264C17.1075 6.58264 17.1825 7.37764 16.26 8.30764L14.4 10.1751C14.22 10.3551 14.1075 10.7601 14.16 11.0076L14.6925 13.3101C15.0375 14.8101 14.505 15.4626 14.16 15.7176C13.9725 15.8526 13.6725 16.0026 13.245 16.0026ZM9 12.9426C9.3675 12.9426 9.735 13.0326 10.0275 13.2051L12.27 14.5326C12.9225 14.9226 13.335 14.9226 13.4925 14.8101C13.65 14.6976 13.7625 14.3001 13.5975 13.5651L13.065 11.2626C12.9225 10.6401 13.155 9.83764 13.605 9.38014L15.465 7.52014C15.8325 7.15264 15.9975 6.79264 15.9225 6.54514C15.84 6.29764 15.495 6.09514 14.985 6.01264L12.5925 5.61514C12.015 5.51764 11.385 5.05264 11.1225 4.52764L9.8025 1.88764C9.5625 1.40764 9.2625 1.12264 9 1.12264C8.7375 1.12264 8.4375 1.40764 8.205 1.88764L6.8775 4.52764C6.615 5.05264 5.985 5.51764 5.4075 5.61514L3.0225 6.01264C2.5125 6.09514 2.1675 6.29764 2.085 6.54514C2.0025 6.79264 2.175 7.16014 2.5425 7.52014L4.4025 9.38014C4.8525 9.83014 5.085 10.6401 4.9425 11.2626L4.41 13.5651C4.2375 14.3076 4.3575 14.6976 4.515 14.8101C4.6725 14.9226 5.0775 14.9151 5.7375 14.5326L7.98 13.2051C8.265 13.0326 8.6325 12.9426 9 12.9426Z" fill="#ED6C02"/>
</g>
</g>
</svg>