<?xml version="1.0" encoding="utf-8"?>
<svg xmlns="http://www.w3.org/2000/svg" width="18" height="16" viewBox="0 0 18 16" fill="none">
<g id="vuesax/outline/star">
<g id="star">
<path id="Vector" d="M13.245 16.0026C12.8475 16.0026 12.3375 15.8751 11.7 15.5001L9.45753 14.1726C9.22503 14.0376 8.77503 14.0376 8.55003 14.1726L6.30003 15.5001C4.97253 16.2876 4.19253 15.9726 3.84003 15.7176C3.49503 15.4626 2.95503 14.8101 3.30753 13.3101L3.84003 11.0076C3.90003 10.7676 3.78003 10.3551 3.60003 10.1751L1.74003 8.31514C0.810027 7.38514 0.885027 6.59014 1.01253 6.20014C1.14003 5.81014 1.54503 5.12014 2.83503 4.90264L5.22753 4.50514C5.45253 4.46764 5.77503 4.22764 5.87253 4.02514L7.20003 1.37764C7.80003 0.170143 8.58753 -0.00985718 9.00003 -0.00985718C9.41253 -0.00985718 10.2 0.170143 10.8 1.37764L12.12 4.01764C12.225 4.22014 12.5475 4.46014 12.7725 4.49764L15.165 4.89514C16.4625 5.11264 16.8675 5.80264 16.9875 6.19264C17.1075 6.58264 17.1825 7.37764 16.26 8.30764L14.4 10.1751C14.22 10.3551 14.1075 10.7601 14.16 11.0076L14.6925 13.3101C15.0375 14.8101 14.505 15.4626 14.16 15.7176C13.9725 15.8526 13.6725 16.0026 13.245 16.0026ZM9.00003 12.9426C9.36753 12.9426 9.73503 13.0326 10.0275 13.2051L12.27 14.5326C12.9225 14.9226 13.335 14.9226 13.4925 14.8101C13.65 14.6976 13.7625 14.3001 13.5975 13.5651L13.065 11.2626C12.9225 10.6401 13.155 9.83764 13.605 9.38014L15.465 7.52014C15.8325 7.15264 15.9975 6.79264 15.9225 6.54514C15.84 6.29764 15.495 6.09514 14.985 6.01264L12.5925 5.61514C12.015 5.51764 11.385 5.05264 11.1225 4.52764L9.80253 1.88764C9.56253 1.40764 9.26253 1.12264 9.00003 1.12264C8.73753 1.12264 8.43753 1.40764 8.20503 1.88764L6.87753 4.52764C6.61503 5.05264 5.98503 5.51764 5.40753 5.61514L3.02253 6.01264C2.51253 6.09514 2.16753 6.29764 2.08503 6.54514C2.00253 6.79264 2.17503 7.16014 2.54253 7.52014L4.40253 9.38014C4.85253 9.83014 5.08503 10.6401 4.94253 11.2626L4.41003 13.5651C4.23753 14.3076 4.35753 14.6976 4.51503 14.8101C4.67253 14.9226 5.07753 14.9151 5.73753 14.5326L7.98003 13.2051C8.26503 13.0326 8.63253 12.9426 9.00003 12.9426Z" fill="black" fill-opacity="0.56"/>
</g>
</g>
</svg>