<svg width="22" height="22" viewBox="0 0 22 22" fill="none" xmlns="http://www.w3.org/2000/svg">
<path fill-rule="evenodd" clip-rule="evenodd" d="M18.9833 21.5H14.9433C12.9333 21.5 11.9633 20.57 11.9633 18.65V2.85C11.9633 0.93 12.9433 0 14.9433 0H18.9833C20.9933 0 21.9633 0.93 21.9633 2.85V18.65C21.9633 20.57 20.9833 21.5 18.9833 21.5ZM14.9433 1.5C13.6733 1.5 13.4633 1.84 13.4633 2.85V18.65C13.4633 19.66 13.6733 20 14.9433 20H18.9833C20.2533 20 20.4633 19.66 20.4633 18.65V2.85C20.4633 1.84 20.2533 1.5 18.9833 1.5H14.9433Z" fill="white"/>
<path d="M7.75658 3.02177L0.749966 3C0.339966 3 -3.42852e-05 2.66 -3.42852e-05 2.25C-3.42852e-05 1.84 0.339966 1.5 0.749966 1.5L7.75658 1.52177C8.16658 1.52177 8.50658 1.86177 8.50658 2.27177C8.50658 2.68177 8.16658 3.02177 7.75658 3.02177Z" fill="white"/>
<path d="M0.749966 7.23673L7.75658 7.2585C8.16658 7.2585 8.50658 6.9185 8.50658 6.5085C8.50658 6.0985 8.16658 5.7585 7.75658 5.7585L0.749966 5.73673C0.339966 5.73673 -3.42852e-05 6.07673 -3.42852e-05 6.48673C-3.42852e-05 6.89673 0.339966 7.23673 0.749966 7.23673Z" fill="white"/>
<path d="M7.75658 11.5439L0.749966 11.5221C0.339966 11.5221 -3.42852e-05 11.1821 -3.42852e-05 10.7721C-3.42852e-05 10.3621 0.339966 10.0221 0.749966 10.0221L7.75658 10.0439C8.16658 10.0439 8.50658 10.3839 8.50658 10.7939C8.50658 11.2039 8.16658 11.5439 7.75658 11.5439Z" fill="white"/>
<path d="M0.749966 15.7409L7.75658 15.7627C8.16658 15.7627 8.50658 15.4227 8.50658 15.0127C8.50658 14.6027 8.16658 14.2627 7.75658 14.2627L0.749966 14.2409C0.339966 14.2409 -3.42852e-05 14.5809 -3.42852e-05 14.9909C-3.42852e-05 15.4009 0.339966 15.7409 0.749966 15.7409Z" fill="white"/>
<path d="M0.749966 19.9962L7.75658 20.018C8.16658 20.018 8.50658 19.678 8.50658 19.268C8.50658 18.858 8.16658 18.518 7.75658 18.518L0.749966 18.4962C0.339966 18.4962 -3.42852e-05 18.8362 -3.42852e-05 19.2462C-3.42852e-05 19.6562 0.339966 19.9962 0.749966 19.9962Z" fill="white"/>
</svg>
