<?xml version="1.0" encoding="utf-8"?>
<svg xmlns="http://www.w3.org/2000/svg" width="16" height="18" viewBox="0 0 16 18" fill="none">
<g id="vuesax/outline/trash">
<g id="trash">
<g id="Union">
<path fill-rule="evenodd" clip-rule="evenodd" d="M4.985 2.655L4.8247 3.60954C4.12168 3.64771 3.42003 3.70145 2.72 3.77251L1.19 3.9225C0.882498 3.95251 0.657498 4.22251 0.687498 4.53751C0.717498 4.85251 0.994998 5.0775 1.31 5.0475L2.84 4.89751C6.7625 4.50001 10.7225 4.65 14.69 5.0475H14.75C15.035 5.0475 15.2825 4.83001 15.305 4.53751C15.335 4.23001 15.11 3.95251 14.8025 3.9225C13.594 3.8039 12.3862 3.70666 11.1803 3.63935L11.015 2.6625L11.0143 2.6581C10.9018 1.96811 10.7338 0.9375 8.9825 0.9375H7.0175C5.27125 0.9375 5.10524 1.93358 4.98526 2.65346L4.985 2.655ZM9.9125 2.85L10.0368 3.58475C8.67962 3.53122 7.32525 3.51913 5.97543 3.56073L6.1025 2.8425L6.10364 2.83575C6.21511 2.17429 6.23269 2.07 7.025 2.07H8.99C9.785 2.07 9.8075 2.1975 9.9125 2.85Z" fill="black" fill-opacity="0.56"/>
<path d="M5.5925 17.0625H10.4075C13.025 17.0625 13.13 15.615 13.2125 14.445L13.7 6.89251C13.7225 6.57751 13.4825 6.31501 13.175 6.29251C12.8675 6.27751 12.5975 6.51001 12.575 6.81751L12.0875 14.37C12.0125 15.51 11.9825 15.9375 10.4075 15.9375H5.5925C4.02593 15.9375 3.99503 15.5105 3.91264 14.3721L3.9125 14.37L3.425 6.81751C3.4025 6.51001 3.14 6.27751 2.825 6.29251C2.5175 6.31501 2.2775 6.58501 2.3 6.89251L2.7875 14.445C2.87 15.615 2.975 17.0625 5.5925 17.0625Z" fill="black" fill-opacity="0.56"/>
<path d="M9.245 12.9375H6.7475C6.44 12.9375 6.185 12.6825 6.185 12.375C6.185 12.0675 6.44 11.8125 6.7475 11.8125H9.245C9.5525 11.8125 9.8075 12.0675 9.8075 12.375C9.8075 12.6825 9.5525 12.9375 9.245 12.9375Z" fill="black" fill-opacity="0.56"/>
<path d="M6.125 9.9375H9.875C10.1825 9.9375 10.4375 9.6825 10.4375 9.375C10.4375 9.0675 10.1825 8.8125 9.875 8.8125H6.125C5.8175 8.8125 5.5625 9.0675 5.5625 9.375C5.5625 9.6825 5.8175 9.9375 6.125 9.9375Z" fill="black" fill-opacity="0.56"/>
</g>
</g>
</g>
</svg>