<?xml version="1.0" encoding="utf-8"?>
<svg xmlns="http://www.w3.org/2000/svg" width="29" height="29" viewBox="0 0 29 29" fill="none">
<path d="M18.2599 7.00691C18.4599 7.20691 18.7132 7.30025 18.9665 7.30025C19.2199 7.30025 19.4865 7.20691 19.6732 7.00691C20.0599 6.62025 20.0599 5.98025 19.6732 5.59358L15.2065 1.12691C14.8199 0.740247 14.1799 0.740247 13.7932 1.12691L9.32655 5.59358C8.93988 5.98025 8.93988 6.62025 9.32655 7.00691C9.71322 7.39358 10.3532 7.39358 10.7399 7.00691L13.5001 4.24671V18.5002C13.5001 19.0468 13.9534 19.5002 14.5001 19.5002C15.0468 19.5002 15.5001 19.0468 15.5001 18.5002V4.24712L18.2599 7.00691Z" fill="#1E417A"/>
<path d="M18.8467 28.167H10.1534C3.60673 28.167 0.806732 25.367 0.806732 18.8204V18.647C0.806732 12.727 3.14007 9.87369 8.36673 9.38036C8.90007 9.34036 9.40673 9.74036 9.46006 10.287C9.5134 10.8337 9.1134 11.327 8.5534 11.3804C4.36673 11.767 2.80673 13.7404 2.80673 18.6604V18.8337C2.80673 24.2604 4.72673 26.1804 10.1534 26.1804H18.8467C24.2734 26.1804 26.1934 24.2604 26.1934 18.8337V18.6604C26.1934 13.7137 24.6067 11.7404 20.3401 11.3804C19.7934 11.327 19.3801 10.847 19.4334 10.3004C19.4867 9.75369 19.9534 9.34036 20.5134 9.39369C25.8201 9.84703 28.1934 12.7137 28.1934 18.6737V18.847C28.1934 25.367 25.3934 28.167 18.8467 28.167Z" fill="#1E417A"/>
</svg>